<svg xmlns="http://www.w3.org/2000/svg" fill="none" viewBox="0 0 512 512">
    <g clip-path="url(#a)">
        <mask id="b" width="512" height="512" x="0" y="0" maskUnits="userSpaceOnUse" style="mask-type:luminance">
            <path fill="#fff" stroke="#fff" d="M.5.5h511v511H.5V.5Z"/>
        </mask>
        <g fill="#DDD" stroke="#DDD" mask="url(#b)">
            <path d="m84.9678 383.078-.4973.052.4973-.052c-2.577-24.874-6.7159-57.923-10.2099-84.967-1.4777-11.437-2.8402-21.8-3.9206-30.019-.197-1.498-.3846-2.925-.5619-4.275-.5746-4.375-1.04-7.931-1.3616-10.447-.1609-1.258-.2856-2.255-.3701-2.964-.0423-.355-.0743-.636-.0956-.841-.0107-.102-.0185-.184-.0236-.245-.0026-.031-.0043-.055-.0054-.073-.0011-.019-.0012-.026-.0012-.025 0-24.349 11.1873-49.922 40.2371-69.353 29.071-19.444 76.055-32.751 147.647-32.447 64.783.276 110.526 13.33 140.056 32.387 29.521 19.052 42.833 44.093 42.833 68.412 0 1.707-5.399 84.122-10.552 133.857-2.486 24.031-24.051 45.347-56.056 60.676-31.973 15.315-74.224 24.578-117.779 24.578-43.556 0-84.806-9.014-115.777-24.076-30.996-15.075-51.5719-36.139-54.0592-60.178Z"/>
            <path stroke-miterlimit="10" stroke-width="8" d="M253.304 144.922c-119.79.816-186.287 42.556-185.844 105.3.012 1.734 8.3592 85.173 14.1777 134.908 5.6785 48.598 74.6453 82.702 173.1663 82.702s167.488-34.104 173.167-82.702c5.818-49.735 14.176-133.174 14.176-134.908 0-49.04-49.659-106.248-188.843-105.3Z"/>
            <path d="M194.225 166.036c.003-7.023 3.109-14.9 7.015-21.037 1.951-3.064 4.086-5.671 6.107-7.506 1.01-.917 1.983-1.633 2.88-2.117.901-.486 1.698-.723 2.367-.723 1.576 0 3.576 1.071 5.727 3.056 2.128 1.964 4.322 4.746 6.279 7.992 3.919 6.502 6.828 14.762 6.422 21.868-.242 4.247-1.799 8.401-4.897 11.425-3.09 3.016-7.763 4.954-14.337 4.687-6.282-.255-10.657-2.551-13.466-5.81-2.817-3.269-4.098-7.552-4.097-11.835Z"/>
            <path stroke-miterlimit="10" stroke-width="7.68" d="M212.594 134.153c-6.248 0-19.689 17.58-19.694 31.883-.003 8.756 6.062 17.625 18.868 18.145 13.376.542 20.083-7.892 20.579-16.584.827-14.486-12.66-33.444-19.753-33.444Z"/>
            <path d="M278.017 166.708c.003-7.097 3.142-15.058 7.089-21.259 1.971-3.096 4.129-5.731 6.171-7.585 1.021-.927 2.004-1.65 2.911-2.14.911-.491 1.718-.731 2.394-.731 1.595 0 3.617 1.084 5.791 3.089 2.151 1.985 4.368 4.797 6.345 8.077 3.96 6.57 6.9 14.917 6.49 22.098-.245 4.292-1.818 8.492-4.949 11.548-3.124 3.048-7.847 5.007-14.491 4.737-6.349-.257-10.771-2.578-13.61-5.873-2.847-3.303-4.142-7.632-4.141-11.961Z"/>
            <path stroke-miterlimit="10" stroke-width="7.76" d="M296.582 134.493c-6.312 0-19.894 17.763-19.899 32.215-.003 8.847 6.125 17.809 19.065 18.334 13.515.548 20.292-7.974 20.793-16.756.836-14.637-12.792-33.793-19.959-33.793Z"/>
            <path d="M128.697 224.68v-.001l-.286-89.436v-.001c.001-4.495 3.179-8.662 8.527-11.732 5.334-3.064 12.737-4.974 20.941-4.974 8.204 0 15.607 1.91 20.942 4.974 5.348 3.071 8.527 7.238 8.527 11.733v.002l.285 89.435c0 4.497-3.178 8.664-8.526 11.735-5.334 3.063-12.737 4.973-20.941 4.973-8.204 0-15.607-1.91-20.942-4.973-5.349-3.071-8.527-7.238-8.527-11.735Z"/>
            <path stroke-miterlimit="10" stroke-width="8.4" d="M157.879 118.036c-16.551 0-29.968 7.705-29.968 17.207l.286 89.437c0 9.504 13.418 15.762 29.969 15.762 16.551 0 29.967-6.258 29.967-15.762l-.285-89.437c0-9.502-13.418-17.207-29.969-17.207Z"/>
            <path d="M150.09 96.0432c2.617-5.7342 4.879-10.3447 6.488-13.5208.743-1.4688 1.347-2.6308 1.781-3.4552.15.9118.397 1.9371.709 3.0277.529 1.8475 1.259 3.9222 2.063 6.0196 1.61 4.195 3.533 8.5099 4.791 11.3267v.0006c2.851 6.3562 4.209 13.6282 3.077 19.2662-.564 2.812-1.741 5.187-3.628 6.858-1.881 1.667-4.517 2.674-8.084 2.667-2.867-.006-5.227-.904-7.045-2.499-1.823-1.6-3.132-3.927-3.837-6.838-1.414-5.832-.387-13.932 3.685-22.8528Z"/>
            <path stroke-linecap="round" stroke-linejoin="round" stroke-width="8.4" d="M158.698 77.369s-3.823 6.9845-9.063 18.4665c-8.2 17.9685-4.26 32.8735 7.651 32.8975 14.665.029 14.845-16.667 9.093-29.4958-2.518-5.6354-7.67-17.2135-7.681-21.8682Z"/>
            <path d="m210.608 291.028-.02.499.02-.499c-7.247-.294-12.302-2.944-15.55-6.712-3.256-3.777-4.734-8.724-4.732-13.666.002-8.101 3.584-17.18 8.084-24.249 2.247-3.53 4.708-6.536 7.04-8.652 1.165-1.059 2.289-1.887 3.329-2.447 1.043-.563 1.973-.842 2.759-.842 1.843 0 4.164 1.251 6.642 3.537 2.455 2.266 4.984 5.474 7.238 9.213 4.514 7.49 7.869 17.01 7.401 25.207-.28 4.902-2.076 9.701-5.657 13.196-3.573 3.487-8.972 5.722-16.554 5.415Z"/>
            <path stroke-miterlimit="10" stroke-width="8" d="M211.538 233.96c-7.188 0-22.657 20.23-22.662 36.69-.003 10.074 6.975 20.28 21.712 20.877 15.392.624 23.108-9.08 23.679-19.081.952-16.669-14.567-38.486-22.729-38.486Z"/>
            <path d="M226.712 135.201c0-4.505 3.184-8.68 8.542-11.757 5.345-3.069 12.761-4.983 20.981-4.983 8.219 0 15.636 1.914 20.98 4.983 5.359 3.077 8.543 7.252 8.543 11.757v90.327c0 4.505-3.184 8.68-8.543 11.757-5.344 3.069-12.761 4.983-20.98 4.983-8.22 0-15.636-1.914-20.981-4.983-5.358-3.077-8.542-7.252-8.542-11.757v-90.327Z"/>
            <path stroke-miterlimit="10" stroke-width="8.4" d="M256.235 117.961c-16.582 0-30.023 7.719-30.023 17.239v90.328c0 9.521 13.441 15.648 30.023 15.648 16.581 0 30.023-6.127 30.023-15.648V135.2c0-9.52-13.442-17.239-30.023-17.239Z"/>
            <path d="M255.637 72.5097c.166 1.01.451 2.1533.814 3.3724.595 1.9976 1.414 4.2415 2.313 6.5107 1.335 3.3712 2.856 6.8219 4.09 9.624.427.9674.819 1.8575 1.157 2.6404l.001.0004c2.878 6.6364 4.443 14.4874 3.328 20.6424-.557 3.069-1.773 5.683-3.789 7.53-2.01 1.842-4.865 2.968-8.793 2.974-3.104.004-5.669-1.016-7.653-2.816-1.99-1.806-3.424-4.423-4.207-7.651-1.568-6.463-.503-15.296 3.818-24.6103 2.9-6.1715 5.326-11.1022 7.027-14.4894.801-1.5956 1.441-2.8487 1.894-3.7276Z"/>
            <path stroke-linecap="round" stroke-linejoin="round" stroke-width="8.4" d="M255.976 70.7744s-3.908 7.3874-9.713 19.7402c-8.708 18.7714-4.393 35.8044 8.496 35.7894 16.11-.025 15.514-18.468 9.711-31.846-2.65-6.1259-8.494-18.6463-8.494-23.6836Z"/>
            <path d="M324.453 224.539v-.001l-.284-89.511v-.001c0-4.499 3.181-8.669 8.533-11.742 5.338-3.066 12.747-4.978 20.958-4.978 8.211 0 15.62 1.912 20.959 4.978 5.353 3.074 8.533 7.244 8.533 11.743v.002l.285 89.51c0 4.5-3.181 8.671-8.533 11.744-5.339 3.065-12.748 4.977-20.958 4.977-8.211 0-15.62-1.912-20.959-4.977-5.353-3.073-8.534-7.244-8.534-11.744Z"/>
            <path stroke-miterlimit="10" stroke-width="8.4" d="M353.66 117.806c-16.564 0-29.991 7.711-29.991 17.221l.284 89.512c0 9.512 13.429 15.774 29.993 15.774s29.991-6.262 29.991-15.774l-.285-89.512c0-9.51-13.428-17.221-29.992-17.221Z"/>
            <path d="M352.181 81.7724c.736-1.4618 1.334-2.6176 1.763-3.4382.153.9136.405 1.9414.722 3.0348.537 1.8491 1.276 3.9258 2.089 6.0251 1.628 4.1986 3.569 8.5164 4.835 11.3296l.001.0006c2.857 6.3287 4.244 13.5867 3.139 19.2227-.551 2.81-1.714 5.188-3.591 6.863-1.872 1.671-4.501 2.687-8.068 2.691-2.867.003-5.232-.891-7.059-2.485-1.832-1.599-3.153-3.929-3.873-6.845-1.442-5.839-.448-13.954 3.599-22.886 2.601-5.7412 4.847-10.345 6.443-13.5126Z"/>
            <path stroke-linecap="round" stroke-linejoin="round" stroke-width="8.4" d="M354.279 76.6386s-3.788 6.9436-8.996 18.44c-8.152 17.9904-4.123 32.9354 7.789 32.9224 14.665-.017 14.741-16.711 8.974-29.4825-2.533-5.6287-7.744-17.2252-7.767-21.8799Z"/>
            <path d="M361.551 250.804c.002-7.321 3.24-15.531 7.311-21.925 2.032-3.193 4.257-5.91 6.364-7.823 1.053-.957 2.067-1.703 3.004-2.208.941-.508 1.774-.757 2.475-.757 1.65 0 3.739 1.122 5.98 3.189 2.219 2.048 4.506 4.948 6.544 8.33 4.084 6.775 7.117 15.383 6.694 22.791-.253 4.428-1.876 8.761-5.107 11.915-3.224 3.146-8.098 5.166-14.95 4.888-6.549-.265-11.112-2.659-14.043-6.059-2.938-3.41-4.273-7.876-4.272-12.341Z"/>
            <path stroke-miterlimit="10" stroke-width="8" d="M380.706 217.591c-6.508 0-20.51 18.313-20.515 33.212-.003 9.121 6.315 18.36 19.655 18.901 13.932.565 20.919-8.221 21.436-17.274.862-15.09-13.188-34.839-20.576-34.839Z"/>
            <path d="m297.965 293.914-.02.499.02-.499c-7.248-.294-12.303-2.944-15.55-6.712-3.256-3.778-4.734-8.724-4.733-13.667.003-8.101 3.585-17.18 8.084-24.248 2.247-3.53 4.709-6.536 7.04-8.653 1.166-1.058 2.29-1.886 3.329-2.447 1.044-.562 1.973-.841 2.76-.841 1.843 0 4.163 1.25 6.641 3.537 2.456 2.266 4.984 5.474 7.238 9.213 4.515 7.489 7.87 17.01 7.402 25.207-.28 4.902-2.077 9.701-5.658 13.196-3.573 3.487-8.971 5.722-16.553 5.415Z"/>
            <path stroke-miterlimit="10" stroke-width="8" d="M298.894 236.846c-7.188 0-22.657 20.23-22.662 36.689-.003 10.075 6.976 20.281 21.713 20.878 15.391.624 23.108-9.081 23.679-19.082.952-16.668-14.567-38.485-22.73-38.485Z"/>
            <path d="M114.592 245.849c.003-8.066 3.57-17.106 8.05-24.144 2.237-3.515 4.688-6.508 7.009-8.615 1.161-1.054 2.28-1.878 3.315-2.437 1.038-.56 1.964-.837 2.746-.837 1.835 0 4.145 1.244 6.612 3.521 2.445 2.256 4.963 5.45 7.207 9.174 4.496 7.457 7.836 16.936 7.37 25.098-.279 4.881-2.068 9.66-5.633 13.14-3.558 3.472-8.932 5.697-16.482 5.391-7.216-.293-12.249-2.931-15.482-6.683-3.242-3.761-4.713-8.686-4.712-13.608Z"/>
            <path stroke-miterlimit="10" stroke-width="8.8" d="M135.712 209.316c-7.158 0-22.56 20.144-22.566 36.533-.003 10.033 6.946 20.196 21.62 20.791 15.326.621 23.011-9.043 23.58-19.002.948-16.599-14.507-38.322-22.634-38.322Z"/>
        </g>
    </g>
    <defs>
        <clipPath id="a">
            <path fill="#fff" d="M0 0h512v512H0z"/>
        </clipPath>
    </defs>
</svg>