<svg xmlns="http://www.w3.org/2000/svg" xmlns:xlink="http://www.w3.org/1999/xlink" style="width:100%;height:100%;transform:translate3d(0,0,0);content-visibility:visible" viewBox="0 0 512 512">
  <defs>
    <path id="reuse-0" d="M0 0h512v512H0z"/>
  </defs>
  <defs>
    <clipPath id="b">
      <use xlink:href="#reuse-0"/>
    </clipPath>
    <clipPath id="ac">
      <use xlink:href="#reuse-0"/>
    </clipPath>
    <clipPath id="ab">
      <use xlink:href="#reuse-0"/>
    </clipPath>
    <clipPath id="aa">
      <use xlink:href="#reuse-0"/>
    </clipPath>
    <clipPath id="Z">
      <use xlink:href="#reuse-0"/>
    </clipPath>
    <clipPath id="Y">
      <use xlink:href="#reuse-0"/>
    </clipPath>
    <clipPath id="X">
      <use xlink:href="#reuse-0"/>
    </clipPath>
    <clipPath id="W">
      <use xlink:href="#reuse-0"/>
    </clipPath>
    <clipPath id="V">
      <use xlink:href="#reuse-0"/>
    </clipPath>
    <clipPath id="T">
      <use xlink:href="#reuse-0"/>
    </clipPath>
    <clipPath id="S">
      <use xlink:href="#reuse-0"/>
    </clipPath>
    <clipPath id="R">
      <use xlink:href="#reuse-0"/>
    </clipPath>
    <clipPath id="Q">
      <use xlink:href="#reuse-0"/>
    </clipPath>
    <clipPath id="P">
      <use xlink:href="#reuse-0"/>
    </clipPath>
    <clipPath id="O">
      <use xlink:href="#reuse-0"/>
    </clipPath>
    <clipPath id="M">
      <use xlink:href="#reuse-0"/>
    </clipPath>
    <clipPath id="L">
      <use xlink:href="#reuse-0"/>
    </clipPath>
    <clipPath id="K">
      <use xlink:href="#reuse-0"/>
    </clipPath>
    <clipPath id="J">
      <use xlink:href="#reuse-0"/>
    </clipPath>
    <clipPath id="H">
      <use xlink:href="#reuse-0"/>
    </clipPath>
    <clipPath id="F">
      <use xlink:href="#reuse-0"/>
    </clipPath>
    <clipPath id="D">
      <use xlink:href="#reuse-0"/>
    </clipPath>
    <clipPath id="B">
      <use xlink:href="#reuse-0"/>
    </clipPath>
    <clipPath id="A">
      <use xlink:href="#reuse-0"/>
    </clipPath>
    <clipPath id="z">
      <use xlink:href="#reuse-0"/>
    </clipPath>
    <clipPath id="y">
      <use xlink:href="#reuse-0"/>
    </clipPath>
    <clipPath id="x">
      <use xlink:href="#reuse-0"/>
    </clipPath>
    <clipPath id="w">
      <use xlink:href="#reuse-0"/>
    </clipPath>
    <clipPath id="u">
      <use xlink:href="#reuse-0"/>
    </clipPath>
    <clipPath id="t">
      <use xlink:href="#reuse-0"/>
    </clipPath>
    <clipPath id="s">
      <use xlink:href="#reuse-0"/>
    </clipPath>
    <clipPath id="r">
      <use xlink:href="#reuse-0"/>
    </clipPath>
    <clipPath id="q">
      <use xlink:href="#reuse-0"/>
    </clipPath>
    <clipPath id="p">
      <use xlink:href="#reuse-0"/>
    </clipPath>
    <clipPath id="o">
      <use xlink:href="#reuse-0"/>
    </clipPath>
    <clipPath id="m">
      <use xlink:href="#reuse-0"/>
    </clipPath>
    <clipPath id="l">
      <use xlink:href="#reuse-0"/>
    </clipPath>
    <clipPath id="k">
      <use xlink:href="#reuse-0"/>
    </clipPath>
    <clipPath id="j">
      <use xlink:href="#reuse-0"/>
    </clipPath>
    <clipPath id="i">
      <use xlink:href="#reuse-0"/>
    </clipPath>
    <clipPath id="h">
      <use xlink:href="#reuse-0"/>
    </clipPath>
    <clipPath id="g">
      <use xlink:href="#reuse-0"/>
    </clipPath>
    <radialGradient id="U" cx="28.54899979" cy="-65.03399658" r="54.56892408" fx="28.54899979" fy="-65.03399658" gradientUnits="userSpaceOnUse" spreadMethod="pad">
      <stop offset="0%" stop-color="#FDEE00" stop-opacity=".69999999"/>
      <stop offset="43%" stop-color="#FDEE00" stop-opacity=".34999999"/>
      <stop offset="100%" stop-color="#FDEE00" stop-opacity="0"/>
    </radialGradient>
    <radialGradient id="N" gradientUnits="userSpaceOnUse" spreadMethod="pad">
      <stop/>
      <stop/>
      <stop/>
    </radialGradient>
    <radialGradient id="I" cx="28.54899979" cy="-65.03399658" r="54.56892408" fx="28.54899979" fy="-65.03399658" gradientUnits="userSpaceOnUse" spreadMethod="pad">
      <stop offset="0%" stop-color="#FDEE00" stop-opacity=".69999999"/>
      <stop offset="43%" stop-color="#FDEE00" stop-opacity=".34999999"/>
      <stop offset="100%" stop-color="#FDEE00" stop-opacity="0"/>
    </radialGradient>
    <radialGradient id="G" cx="28.54899979" cy="-65.03399658" r="54.56892408" fx="28.54899979" fy="-65.03399658" gradientUnits="userSpaceOnUse" spreadMethod="pad">
      <stop offset="0%" stop-color="#FDEE00" stop-opacity=".69999999"/>
      <stop offset="43%" stop-color="#FDEE00" stop-opacity=".34999999"/>
      <stop offset="100%" stop-color="#FDEE00" stop-opacity="0"/>
    </radialGradient>
    <radialGradient id="d" cx="1.01900005" cy="-.101" r="136.86748923" fx="1.01900005" fy="-.101" gradientUnits="userSpaceOnUse" spreadMethod="pad">
      <stop offset="87%" stop-color="#FFF"/>
      <stop offset="97%" stop-color="#FFF"/>
      <stop offset="100%" stop-color="#FFF"/>
    </radialGradient>
    <radialGradient id="a" cx="1.01900005" cy="-.101" r="136.86748923" fx="1.01900005" fy="-.101" gradientUnits="userSpaceOnUse" spreadMethod="pad">
      <stop offset="87%" stop-color="#FFF"/>
      <stop offset="94%" stop-color="#FFF" stop-opacity=".5"/>
      <stop offset="100%" stop-color="#FFF" stop-opacity="0"/>
    </radialGradient>
    <radialGradient id="f" cx="0" cy="0" r="100" fx="0" fy="0" gradientUnits="userSpaceOnUse" spreadMethod="pad">
      <stop offset="70%" stop-color="#EEECEA"/>
      <stop offset="85%" stop-color="#EEECEA" stop-opacity=".5"/>
      <stop offset="100%" stop-color="#EEECEA" stop-opacity="0"/>
    </radialGradient>
    <radialGradient id="E" cx="-34.75" cy="-112.61299896" r="58.31876107" fx="-34.75" fy="-112.61299896" gradientUnits="userSpaceOnUse" spreadMethod="pad">
      <stop offset="0%" stop-color="#FDEE00" stop-opacity=".69999999"/>
      <stop offset="43%" stop-color="#FDEE00" stop-opacity=".34999999"/>
      <stop offset="100%" stop-color="#FDEE00" stop-opacity="0"/>
    </radialGradient>
    <radialGradient id="C" gradientUnits="userSpaceOnUse" spreadMethod="pad">
      <stop/>
      <stop/>
      <stop/>
    </radialGradient>
    <radialGradient id="v" gradientUnits="userSpaceOnUse" spreadMethod="pad">
      <stop/>
      <stop/>
      <stop/>
    </radialGradient>
    <radialGradient id="n" cx="28.54899979" cy="-65.03399658" r="54.56892408" fx="28.54899979" fy="-65.03399658" gradientUnits="userSpaceOnUse" spreadMethod="pad">
      <stop offset="0%" stop-color="#FDEE00" stop-opacity=".69999999"/>
      <stop offset="43%" stop-color="#FDEE00" stop-opacity=".34999999"/>
      <stop offset="100%" stop-color="#FDEE00" stop-opacity="0"/>
    </radialGradient>
    <linearGradient id="c" x1="-219.79299927" x2="152.80499268" y1="2.19499993" y2="3.21499991" gradientUnits="userSpaceOnUse" spreadMethod="pad">
      <stop offset="0%" stop-color="#9F9F9C"/>
      <stop offset="8%" stop-color="#C6C3BE"/>
      <stop offset="34%" stop-color="#EDE7DF"/>
      <stop offset="50%" stop-color="#ECE7E0"/>
      <stop offset="66%" stop-color="#ECE7E0"/>
      <stop offset="92%" stop-color="#C6C3BE"/>
      <stop offset="100%" stop-color="#9F9F9C"/>
    </linearGradient>
    <mask id="e">
      <path fill="url(#a)" d="M0-136.46499634c75.36799622 0 136.46499634 61.09700012 136.46499634 136.46499634 0 75.36799622-61.09700012 136.46499634-136.46499634 136.46499634-75.36799622 0-136.46499634-61.09700012-136.46499634-136.46499634 0-75.36799622 61.09700012-136.46499634 136.46499634-136.46499634z"/>
    </mask>
  </defs>
  <g clip-path="url(#b)">
    <g style="display:block">
      <path fill="url(#c)" d="M-33.69599915-93.05200195C-176.9980011-93.66100311-222.09899902-39.7970009-222.09899902 9.23799992c0 1.7340002 11.40100097 84.1659994 16.55400085 133.89600277 5.0289917 48.59399414 83.10299683 84.69499206 170.34899902 84.69499206 87.24599839 0 169.31900025-37.10099792 174.34799195-85.69499206 5.15299988-49.73000336 10.55500793-132.16100312 10.55500793-133.89600277C149.70700073-40.79700088 96-92.5-33.69599915-93.05200195z" transform="matrix(.99991 0 0 1.00009 289.99694824 239.98274231)"/>
      <path fill="url(#d)" d="M0-136.46499634c75.36799622 0 136.46499634 61.09700012 136.46499634 136.46499634 0 75.36799622-61.09700012 136.46499634-136.46499634 136.46499634-75.36799622 0-136.46499634-61.09700012-136.46499634-136.46499634 0-75.36799622 61.09700012-136.46499634 136.46499634-136.46499634z" mask="url(#e)" transform="matrix(1.35988 0 0 .72006 255.81400388 243.29303819)"/>
      <path fill="url(#f)" d="M0-97.3809967C53.74457169-97.3809967 97.3809967-53.7445717 97.3809967 0 97.3809967 53.74457169 53.7445717 97.3809967 0 97.3809967-53.74457169 97.3809967-97.3809967 53.7445717-97.3809967 0c0-53.74457169 43.63642501-97.3809967 97.3809967-97.3809967z" transform="matrix(1.74284 0 0 .77007 253.38122275 222.36216757)"/>
      <path fill="none" stroke="#908D88" stroke-miterlimit="10" stroke-width="8" d="M-36.69599915-95.05200195C-156.49699402-94.23600006-223-52.5-222.55700684 10.23799992c.01200867 1.7340002 8.36000061 85.1659994 14.17900086 134.89600277 5.67900085 48.59399414 74.65200806 82.69499206 173.18200683 82.69499206 98.52999878 0 167.50300599-34.10099792 173.18199158-82.69499206 5.81900025-49.73000336 14.17800903-133.16200257 14.17800903-134.89600277C152.16400146-38.79700088 102.5-96-36.69599914-95.05200195z" transform="matrix(.99991 0 0 1.00009 289.99694824 239.98274231)"/>
    </g>
    <g class="2" clip-path="url(#h)" style="display:block" transform="matrix(.99992 0 0 1.00009 -44.71993637 -6.08689165)">
      <g class="2" style="display:block">
        <path fill="#929EB0" d="M281.23445673 185.9372755c-.00575683 6.1526384-10.5359983 11.13119908-23.5200068 11.11871862-12.98399384-.01248047-23.50463326-5.01023976-23.49887642-11.16288.00575683-6.15264025 10.53600562-11.13120093 23.51999947-11.11872046 12.98400118.01248047 23.50464059 5.01024159 23.49888375 11.16288183z" opacity=".3"/>
        <path fill="#B1002F" d="M257.3342937 140.22687856c-6.24767565 0-18.86496052 17.57855674-18.86975056 31.88063528-.00288574 8.75519878 5.236787 17.62367941 18.04414999 18.14303975 13.3766452.5424005 19.25856402-7.89119916 19.75488237-16.58208031.82751951-14.48447722-11.8358347-33.44159472-18.9292818-33.44159472z"/>
        <g opacity=".3">
          <path fill="#DF0045" d="M252.72437192 163.45887512c0 1.54271847-.8918408 2.78879876-1.98911128 2.78879876-1.09728513 0-1.98815914-1.2460803-1.98815914-2.78879876 0-1.53503903.890874-2.78879877 1.98815914-2.78879877 1.09727048 0 1.98911128 1.25375974 1.98911128 2.78879877zm5.00063954 5.00831898c0 1.53503902-.8918408 2.7897619-1.98911128 2.7897619-1.09728514 0-1.98815914-1.25472288-1.98815914-2.7897619 0-1.54271848.890874-2.78879877 1.98815914-2.78879877 1.09727048 0 1.98911128 1.2460803 1.98911128 2.78879877zm-10.01759743-10.02528054c0 1.53504269-.89854979 2.78880243-1.98815914 2.78880243-1.09727048 0-1.98911128-1.25375974-1.98911128-2.78880243 0-1.53503903.8918408-2.7887951 1.98911128-2.7887951 1.08960935 0 1.98815914 1.25375607 1.98815914 2.7887951zm3.48191886 14.3078427c0 1.53503902-.89854978 2.78879876-1.98815913 2.78879876-1.09727048 0-1.98911128-1.25375974-1.98911128-2.78879876 0-1.54272214.8918408-2.78880243 1.98911128-2.78880243 1.08960935 0 1.98815913 1.2460803 1.98815913 2.78880243zm-5.02463367-5.01696156c0 1.53503903-.8918408 2.78111932-1.98912593 2.78111932-1.0895947 0-1.98815914-1.2460803-1.98815914-2.78111932 0-1.54271847.89856443-2.78879877 1.98815914-2.78879877 1.09728513 0 1.98912593 1.2460803 1.98912593 2.78879877zm16.63488244 5.80127917c0 1.54272213-.8918408 2.78879876-1.98912593 2.78879876-1.09728514 0-1.98815914-1.24607663-1.98815914-2.78879876 0-1.53503903.890874-2.78879877 1.98815914-2.78879877 1.09728513 0 1.98912593 1.25375974 1.98912593 2.78879877zm4.99967274 5.00831898c0 1.53504269-.890874 2.78880242-1.98815914 2.78880242-1.0895947 0-1.98911128-1.25375973-1.98911128-2.78880242 0-1.53503903.89951658-2.78879877 1.98911128-2.78879877 1.09728513 0 1.98815914 1.25375974 1.98815914 2.78879877zm-11.54304174-.72575682c0 1.54271847-.8918408 2.78879876-1.98911128 2.78879876-1.09728513 0-1.98815914-1.2460803-1.98815914-2.78879876 0-1.5350427.890874-2.7897619 1.98815914-2.7897619 1.09727048 0 1.98911128 1.2547192 1.98911128 2.7897619zm5.12352528 5.12351795c0 1.53503903-.89856443 2.78879876-1.98815914 2.78879876-1.09728513 0-1.98912593-1.25375973-1.98912593-2.78879876 0-1.54271847.8918408-2.78879877 1.98912593-2.78879877 1.0895947 0 1.98815914 1.2460803 1.98815914 2.78879877zm-16.85759728-6.07296007c0 1.54272213-.89088865 2.78879876-1.98815913 2.78879876-1.09728514 0-1.98815914-1.24607663-1.98815914-2.78879876 0-1.53503903.890874-2.78879877 1.98815914-2.78879877 1.09727048 0 1.98815913 1.25375974 1.98815913 2.78879877zm-5.01600575-5.0169579c0 1.53503903-.8918408 2.78879877-1.98911128 2.78879877-1.09728513 0-1.98815914-1.25375974-1.98815914-2.78879877 0-1.53504269.890874-2.78880243 1.98815914-2.78880243 1.09727048 0 1.98911128 1.25375974 1.98911128 2.78880243zm10.0915281 10.09151711c0 1.5350427-.8918408 2.78880243-1.98912593 2.78880243-1.09728514 0-1.98815914-1.25375974-1.98815914-2.78880243 0-1.53503903.890874-2.78879877 1.98815914-2.78879877 1.09728513 0 1.98912593 1.25375974 1.98912593 2.78879877zm5.11486805 5.11584217c0 1.54271847-.890874 2.78879877-1.98815914 2.78879877-1.09727048 0-1.98911128-1.2460803-1.98911128-2.78879877 0-1.53504269.8918408-2.78880243 1.98911128-2.78880243 1.09728513 0 1.98815914 1.25375974 1.98815914 2.78880243zm-.51936034-33.1036809c0 1.53503903-.8918408 2.78879877-1.98911129 2.78879877-1.09728513 0-1.98815913-1.25375974-1.98815913-2.78879877s.890874-2.78975824 1.98815913-2.78975824c1.09727049 0 1.98911129 1.25471921 1.98911129 2.78975824zm5.06592762 5.07359974c0 1.53503903-.89088865 2.7897619-1.98815914 2.7897619-1.08960935 0-1.98912593-1.25472287-1.98912593-2.7897619 0-1.54271847.89951658-2.78880243 1.98912593-2.78880243 1.09727049 0 1.98815914 1.24608396 1.98815914 2.78880243zm5.00928211 5.00063954c0 1.53504269-.8918408 2.78880243-1.98912593 2.78880243-1.09727048 0-1.98815913-1.25375974-1.98815913-2.78880243 0-1.53503903.89088865-2.78879877 1.98815913-2.78879877 1.09728513 0 1.98912593 1.25375974 1.98912593 2.78879877zm5.07455555 5.07455921c0 1.5350427-.89951658 2.78880243-1.9891186 2.78880243-1.09727781 0-1.98815914-1.25375974-1.98815914-2.78880243 0-1.53503903.89088133-2.78879877 1.98815914-2.78879877 1.08960202 0 1.9891186 1.25375974 1.9891186 2.78879877zm5.01599843 5.01696156c0 1.53503903-.89088133 2.78879876-1.98815914 2.78879876-1.0972778 0-1.98815913-1.25375973-1.98815913-2.78879876s.89088132-2.78879877 1.98815913-2.78879877c1.0972778 0 1.98815914 1.25375974 1.98815914 2.78879877zm-14.17535857-24.7535993c0 1.53503903-.890874 2.78879876-1.98048336 2.78879876-1.09727048 0-1.98815913-1.25375973-1.98815913-2.78879876s.89088865-2.78975824 1.98815913-2.78975824c1.08960935 0 1.98048336 1.25471921 1.98048336 2.78975824zm5.07456287 5.07456287c0 1.53503903-.89088133 2.7887951-1.98816646 2.7887951-1.09727048 0-1.98911128-1.25375607-1.98911128-2.7887951 0-1.54272213.8918408-2.78976556 1.98911128-2.78976556 1.09728513 0 1.98816646 1.24704343 1.98816646 2.78976556zm5.00831532 4.9996764c0 1.54272214-.890874 2.78879877-1.98815914 2.78879877-1.0972778 0-1.98815913-1.24607663-1.98815913-2.78879877 0-1.53503902.89088133-2.78879876 1.98815913-2.78879876 1.09728514 0 1.98815914 1.25375974 1.98815914 2.78879876zm5.0918407 5.09952015c0 1.53503903-.8918408 2.78879877-1.9891186 2.78879877s-1.98815914-1.25375974-1.98815914-2.78879877c0-1.54271847.89088133-2.78879876 1.98815914-2.78879876 1.0972778 0 1.9891186 1.2460803 1.9891186 2.78879876z"/>
        </g>
        <path fill="#690027" d="M276.2635755 173.6675138c-.49535888 8.68896221-6.37919664 17.12928002-19.75391558 16.58592004-12.8063962-.5203198-18.04511678-9.39072122-18.04511678-18.14496053 0-2.68991815 4.00606925-8.96159892 4.00606925-8.96159892-1.95647457 5.04191883 1.2864111 15.52031948 14.89920376 15.49535854 13.8969577-.02495727 16.80672326-9.7900779 15.45024136-14.674559 2.76191888 1.68095944 3.61439933 6.69600205 3.44351799 9.69983987z" opacity=".4"/>
        <path fill="#F1F1F1" d="M276.2635755 173.66559486c-.00864258.08255859-.00864258.16512084-.01631836.24767944-.93216062-11.53535863-12.31872043-25.90080265-18.91199665-25.90080265-5.98272936 0-17.82240194 14.19264373-18.80447712 25.72800236-.04992187-.54432128-.06624023-1.08959837-.06624023-1.63391964.00862793-14.29920012 12.62399386-31.88352102 18.87071735-31.88352102 7.0963182 0 19.7529561 18.96096271 18.928315 33.4425615z" opacity=".24"/>
        <path fill="none" stroke="#720027" stroke-miterlimit="10" stroke-width="7.68" d="M257.3342937 140.22687856c-6.24767565 0-19.69056109 17.57855674-19.69535113 31.88063528-.00288574 8.75519878 6.06238756 17.62367941 18.86975056 18.14303975 13.3766452.5424005 20.08416459-7.89119916 20.58048294-16.58208031.8275195-14.48447722-12.66143527-33.44159472-19.75488238-33.44159472z"/>
      </g>
    </g>
    <g clip-path="url(#i)" style="display:block" transform="matrix(.99992 0 0 1.00009 39.27272034 -5.45084858)">
      <g style="display:block">
        <path fill="#929EB0" d="M281.47934443 186.11745251c-.0058168 6.21672872-10.64574884 11.24714967-23.7650081 11.2345392-13.11924447-.01261048-23.74947443-5.06243002-23.74365763-11.2791606.0058168-6.21673056 10.64575624-11.2471515 23.7650007-11.23454103 13.11925187.01261047 23.74948183 5.06243186 23.74366503 11.27916243z" opacity=".3"/>
        <path fill="#B1002F" d="M257.3302201 139.93090322c-6.31275592 0-19.0614715 17.76166762-19.06631144 32.2127269-.0029158 8.84639922 5.29133713 17.80726033 18.23211083 18.3320307 13.51598596.54805053 19.45917507-7.97339957 19.96066343-16.75481119.83613955-14.63535795-11.95912527-33.7899464-19.12646282-33.7899464z"/>
        <g opacity=".3">
          <path fill="#DF0045" d="M252.67227807 163.40490095c0 1.55878854-.90113086 2.8178489-2.0098313 2.8178489-1.10871524 0-2.00886923-1.25906036-2.00886923-2.8178489 0-1.5510291.90015399-2.8178489 2.00886923-2.8178489 1.10870044 0 2.0098313 1.2668198 2.0098313 2.8178489zm5.0527298 5.06048923c0 1.5510291-.90113086 2.81882207-2.0098313 2.81882207-1.10871525 0-2.00886923-1.26779297-2.00886923-2.81882207 0-1.55878853.90015398-2.8178489 2.00886923-2.8178489 1.10870044 0 2.0098313 1.25906037 2.0098313 2.8178489zm-10.12194794-10.12971106c0 1.5510328-.90790972 2.8178526-2.00886923 2.8178526-1.10870044 0-2.0098313-1.2668198-2.0098313-2.8178526 0-1.5510291.90113086-2.8178452 2.0098313-2.8178452 1.1009595 0 2.00886923 1.2668161 2.00886923 2.8178452zm3.51818904 14.45688347c0 1.5510291-.90790972 2.8178489-2.00886923 2.8178489-1.10870044 0-2.0098313-1.2668198-2.0098313-2.8178489 0-1.55879223.90113086-2.8178526 2.0098313-2.8178526 1.1009595 0 2.00886923 1.25906037 2.00886923 2.8178526zm-5.07697387-5.06922183c0 1.5510291-.90113086 2.81008946-2.0098461 2.81008946-1.1009447 0-2.00886923-1.25906037-2.00886923-2.81008946 0-1.55878854.90792453-2.8178489 2.00886923-2.8178489 1.10871524 0 2.0098461 1.25906036 2.0098461 2.8178489zm16.80816333 5.86170946c0 1.55879223-.90113085 2.8178489-2.0098461 2.8178489-1.10871524 0-2.00886922-1.25905667-2.00886922-2.8178489 0-1.5510291.90015398-2.8178489 2.00886923-2.8178489 1.10871524 0 2.0098461 1.2668198 2.0098461 2.8178489zm5.05175293 5.06048923c0 1.5510328-.90015399 2.8178526-2.00886923 2.8178526-1.1009447 0-2.0098313-1.2668198-2.0098313-2.8178526 0-1.5510291.9088866-2.8178489 2.0098313-2.8178489 1.10871524 0 2.00886923 1.2668198 2.00886923 2.8178489zm-11.66328236-.73331683c0 1.55878854-.90113085 2.8178489-2.0098313 2.8178489-1.10871524 0-2.00886922-1.25906036-2.00886922-2.8178489 0-1.5510328.90015398-2.81882206 2.00886923-2.81882206 1.10870044 0 2.0098313 1.26778927 2.0098313 2.81882206zm5.1768956 5.1768882c0 1.5510291-.90792452 2.8178489-2.00886923 2.8178489-1.10871524 0-2.0098461-1.2668198-2.0098461-2.8178489 0-1.55878853.90113086-2.8178489 2.0098461-2.8178489 1.1009447 0 2.00886923 1.25906037 2.00886923 2.8178489zm-17.03319813-6.13622038c0 1.55879223-.90016879 2.8178489-2.00886923 2.8178489-1.10871524 0-2.00886923-1.25905667-2.00886923-2.8178489 0-1.5510291.90015399-2.8178489 2.00886923-2.8178489 1.10870044 0 2.00886923 1.2668198 2.00886923 2.8178489zm-5.06825607-5.06921814c0 1.5510291-.90113086 2.8178489-2.0098313 2.8178489-1.10871524 0-2.00886923-1.2668198-2.00886923-2.8178489 0-1.5510328.90015399-2.8178526 2.00886923-2.8178526 1.10870044 0 2.0098313 1.2668198 2.0098313 2.8178526zm10.1966487 10.1966376c0 1.5510328-.90113085 2.8178526-2.0098461 2.8178526-1.10871523 0-2.00886922-1.2668198-2.00886922-2.8178526 0-1.5510291.90015399-2.8178489 2.00886923-2.8178489 1.10871524 0 2.0098461 1.2668198 2.0098461 2.8178489zm5.1681482 5.16913247c0 1.55878853-.90015399 2.8178489-2.00886923 2.8178489-1.10870044 0-2.0098313-1.25906037-2.0098313-2.8178489 0-1.5510328.90113086-2.8178526 2.0098313-2.8178526 1.10871524 0 2.00886923 1.2668198 2.00886923 2.8178526zm-.52477037-33.44851265c0 1.5510291-.90113086 2.8178489-2.0098313 2.8178489-1.10871524 0-2.00886923-1.2668198-2.00886923-2.8178489s.90015399-2.81881836 2.00886923-2.81881836c1.10870044 0 2.0098313 1.26778926 2.0098313 2.81881836zm5.11869797 5.12645c0 1.5510291-.9001688 2.81882207-2.00886923 2.81882207-1.10095951 0-2.0098461-1.26779297-2.0098461-2.81882206 0-1.55878854.90888659-2.8178526 2.0098461-2.8178526 1.10870044 0 2.00886923 1.25906406 2.00886923 2.8178526zm5.0614624 5.0527298c0 1.5510328-.90113086 2.8178526-2.0098461 2.8178526-1.10870045 0-2.00886923-1.2668198-2.00886923-2.8178526 0-1.5510291.90016878-2.8178489 2.00886923-2.8178489 1.10871524 0 2.0098461 1.2668198 2.0098461 2.8178489zm5.12741576 5.12741947c0 1.5510328-.90888659 2.8178526-2.0098387 2.8178526-1.10870784 0-2.00886922-1.2668198-2.00886922-2.8178526 0-1.5510291.90016138-2.8178489 2.00886923-2.8178489 1.1009521 0 2.0098387 1.2668198 2.0098387 2.8178489zm5.06824867 5.06922184c0 1.5510291-.90016138 2.8178489-2.00886923 2.8178489-1.10870784 0-2.00886923-1.2668198-2.00886923-2.8178489s.9001614-2.8178489 2.00886923-2.8178489c1.10870785 0 2.00886923 1.2668198 2.00886923 2.8178489zm-14.3230193-25.0114506c0 1.5510291-.90015398 2.8178489-2.00111349 2.8178489-1.10870044 0-2.00886923-1.2668198-2.00886923-2.8178489s.9001688-2.81881836 2.00886923-2.81881836c1.1009595 0 2.0011135 1.26778927 2.0011135 2.81881837zm5.12742318 5.12742318c0 1.5510291-.9001614 2.8178452-2.00887663 2.8178452-1.10870045 0-2.0098313-1.2668161-2.0098313-2.8178452 0-1.55879224.90113085-2.81882577 2.0098313-2.81882577 1.10871524 0 2.00887663 1.26003353 2.00887663 2.81882577zm5.06048553 5.05175662c0 1.55879224-.90015399 2.8178489-2.00886923 2.8178489-1.10870784 0-2.00886923-1.25905666-2.00886923-2.8178489 0-1.5510291.90016139-2.8178489 2.00886923-2.8178489 1.10871524 0 2.00886923 1.2668198 2.00886923 2.8178489zm5.14488098 5.15264042c0 1.5510291-.90113086 2.8178489-2.0098387 2.8178489-1.10870784 0-2.00886923-1.2668198-2.00886923-2.8178489 0-1.55878853.90016139-2.8178489 2.00886923-2.8178489 1.10870784 0 2.0098387 1.25906037 2.0098387 2.8178489z"/>
        </g>
        <path fill="#690027" d="M276.45668292 173.71988016c-.5005189 8.77947269-6.44564694 17.30771091-19.95968657 16.75869091-12.93979683-.52573984-18.2330877-9.48854173-18.2330877-18.33397149 0-2.71793827 4.04779935-9.05494938 4.04779935-9.05494938-1.97685461 5.09443909 1.29981129 15.68199029 15.05440459 15.65676934 14.0417184-.02521725 16.98179417-9.8920584 15.61118218-14.82741976 2.79068901 1.69846952 3.65204951 6.76575242 3.47938815 9.80088038z" opacity=".4"/>
        <path fill="#F1F1F1" d="M276.45668292 173.71794123c-.0087326.08341858-.0087326.16684086-.01648835.25025944-.94187068-11.65551922-12.44704107-26.17060403-19.1089976-26.17060403-6.04504977 0-18.0080529 14.34048451-19.00035807 25.99600373-.0504419-.54999132-.06693024-1.1009484-.06693024-1.65093972.0087178-14.44815087 12.75549445-32.2156427 19.06728831-32.2156427 7.17023855 0 19.9587171 19.15847373 19.12548595 33.79092328z" opacity=".24"/>
        <path fill="none" stroke="#720027" stroke-miterlimit="10" stroke-width="7.76" d="M257.3302201 139.93090322c-6.31275592 0-19.89567212 17.76166762-19.90051206 32.2127269-.0029158 8.84639922 6.12553775 17.80726033 19.06631145 18.3320307 13.51598596.54805053 20.29337569-7.97339957 20.79486404-16.75481119.83613955-14.63535795-12.79332588-33.7899464-19.96066343-33.7899464z"/>
      </g>
    </g>
    <g clip-path="url(#j)" style="display:block" transform="matrix(.99992 0 0 1.00009 -.84394717 -12.12035942)">
      <g style="display:block">
        <path fill="#929EB0" d="M164.51765592 214.39542821c-.00602326 6.08880004-10.42578112 11.01487903-23.2750364 11.00283909-12.8492684-.01203995-23.260431-4.95704003-23.25440774-11.04583843.00602326-6.08880168 10.42578112-11.01574184 23.2750364-11.00370189 12.8492684.01203995 23.26042443 4.95789956 23.25440774 11.04670123z" opacity=".3"/>
        <path fill="#B1002F" d="M140.86678943 169.16028502c-6.18253611 0-18.66974 17.39608412-18.67403107 31.54996123-.00258514 8.66364128 5.18236093 17.43994136 17.85703368 17.95336147 13.23798484.53664048 19.058463-7.80880006 19.54952227-16.4088002.81871645-14.33362009-11.71233647-33.0945225-18.73252488-33.0945225z"/>
        <g opacity=".3">
          <path fill="#DF0045" d="M136.30449566 192.15066687c0 1.52650134-.8815079 2.76059926-1.96768833 2.76059926-1.08618044 0-1.9676752-1.23409792-1.9676752-2.76059926 0-1.51875902.88149476-2.75973973 1.9676752-2.75973973s1.96768833 1.2409807 1.96768833 2.75973973zm4.94843819 4.95704003c0 1.51875903-.88149477 2.75973973-1.9676752 2.75973973-1.08618044 0-1.9685413-1.2409807-1.9685413-2.75973973 0-1.52736086.88236086-2.76059926 1.9685413-2.76059926 1.08618043 0 1.9676752 1.2332384 1.9676752 2.76059926zm-9.9132271-9.92182237c0 1.51876231-.89009004 2.76060254-1.9676752 2.76060254-1.08618044 0-1.9676752-1.24184023-1.9676752-2.76060254 0-1.51875902.88149476-2.75973973 1.9676752-2.75973973 1.07758516 0 1.9676752 1.2409807 1.9676752 2.75973973zm3.44602332 14.15904412c0 1.51875903-.89010317 2.76059926-1.9676752 2.76059926-1.08618044 0-1.96767521-1.24184023-1.96767521-2.76059926 0-1.52736086.88149477-2.75973973 1.9676752-2.75973973 1.07757204 0 1.9676752 1.23237887 1.9676752 2.75973973zm-4.9725181-4.9639228c0 1.5187623-.88149476 2.75114117-1.9676752 2.75114117-1.07758516 0-1.96854129-1.23237887-1.96854129-2.75114118 0-1.52649806.89095613-2.76059926 1.9685413-2.76059926 1.08618043 0 1.9676752 1.2341012 1.9676752 2.76059926zm16.46126585 5.74050271c0 1.52735759-.8815079 2.75973973-1.96768833 2.75973973-1.08618044 0-1.9676752-1.23238214-1.9676752-2.75973973 0-1.5187623.88149476-2.76060254 1.9676752-2.76060254s1.96768833 1.24184023 1.96768833 2.76060254zm4.94843819 4.9561805c0 1.51875903-.88150133 2.75973973-1.96768177 2.75973973-1.0775786 0-1.96768176-1.2409807-1.96768176-2.75973973 0-1.5187623.89010316-2.759743 1.96768176-2.759743 1.08618044 0 1.96768177 1.2409807 1.96768177 2.759743zm-11.42338428-.71896203c0 1.52650134-.88149477 2.75973973-1.9676752 2.75973973-1.08618045 0-1.9685413-1.2332384-1.9685413-2.75973973 0-1.51875903.88236085-2.75973973 1.9685413-2.75973973 1.08618043 0 1.9676752 1.2409807 1.9676752 2.75973973zm5.07055672 5.07141953c0 1.51876231-.89009004 2.75973974-1.9676752 2.75973974-1.08618044 0-1.9676752-1.24097743-1.9676752-2.75973974 0-1.52735758.88149476-2.76059925 1.9676752-2.76059925 1.07758516 0 1.9676752 1.23324167 1.9676752 2.76059925zm-16.68227597-6.01053873c0 1.52736086-.88149477 2.76059926-1.9676752 2.76059926-1.08618044 0-1.96768833-1.2332384-1.96768833-2.76059926 0-1.51875903.88150789-2.75973973 1.96768832-2.75973973 1.08618044 0 1.9676752 1.2409807 1.9676752 2.75973973zm-4.96392281-4.96391953c0 1.51875903-.88236086 2.75973973-1.9685413 2.75973973-1.08618044 0-1.9676752-1.2409807-1.9676752-2.75973973 0-1.51876231.88149476-2.76060254 1.9676752-2.76060254s1.9685413 1.24184023 1.9685413 2.76060254zm9.98631974 9.98631974c0 1.51875903-.88236085 2.75973973-1.9685413 2.75973973-1.08618043 0-1.9676752-1.2409807-1.9676752-2.75973973 0-1.51875902.88149477-2.76059925 1.9676752-2.76059925 1.08618045 0 1.9685413 1.24184023 1.9685413 2.76059925zm5.06196145 5.06195817c0 1.52736087-.88149477 2.7606009-1.9676752 2.7606009-1.08618044 0-1.96768833-1.23324003-1.96768833-2.7606009 0-1.51875903.88150789-2.75973973 1.96768833-2.75973973 1.08618043 0 1.9676752 1.2409807 1.9676752 2.75973973zm-.51427308-32.75997598c0 1.51875903-.88150789 2.76059926-1.96768833 2.76059926-1.08618043 0-1.9676752-1.24184023-1.9676752-2.76059926 0-1.51876559.88149477-2.75974629 1.9676752-2.75974629 1.08618044 0 1.96768833 1.2409807 1.96768833 2.7597463zm5.01380166 5.02239694c0 1.51875903-.88150789 2.75973973-1.96768833 2.75973973-1.07757204 0-1.96854129-1.2409807-1.96854129-2.75973973 0-1.52736087.89096925-2.76059926 1.9685413-2.76059926 1.08618043 0 1.96768832 1.2332384 1.96768832 2.76059926zm4.9561805 4.94757866c0 1.51876231-.88150789 2.76060254-1.96768833 2.76060254-1.08618043 0-1.9676752-1.24184023-1.9676752-2.76060254 0-1.51875903.88149477-2.75973973 1.9676752-2.75973973 1.08618044 0 1.96768833 1.2409807 1.96768833 2.75973973zm5.02239694 5.02240022c0 1.5187623-.8909627 2.759743-1.9685413 2.759743-1.08618044 0-1.96768176-1.2409807-1.96768176-2.759743 0-1.51875903.88150132-2.75973973 1.96768176-2.75973973 1.0775786 0 1.9685413 1.2409807 1.9685413 2.75973973zm4.96391625 4.96478234c0 1.51875903-.88150133 2.75973973-1.96768177 2.75973973-1.08618044 0-1.9676752-1.2409807-1.9676752-2.75973973 0-1.51876231.88149476-2.76060254 1.9676752-2.76060254s1.96768177 1.24184023 1.96768177 2.76060254zm-14.02832375-24.49710422c0 1.5187656-.88149477 2.75973974-1.95907993 2.75973974-1.08618044 0-1.9685413-1.24097415-1.9685413-2.75973974 0-1.51875902.88236086-2.75973973 1.9685413-2.75973973 1.07758516 0 1.95907993 1.2409807 1.95907993 2.75973973zm5.0224035 5.0224035c0 1.51875903-.8823543 2.75973973-1.96853474 2.75973973s-1.96768833-1.2409807-1.96768833-2.75973973c0-1.52736087.8815079-2.76059926 1.96768833-2.76059926 1.08618044 0 1.96853473 1.2332384 1.96853473 2.76059926zm4.9561805 4.94757866c0 1.52736087-.88150133 2.76060254-1.96768177 2.76060254-1.08618044 0-1.9676752-1.23324167-1.9676752-2.76060254 0-1.51875902.88149476-2.75973973 1.9676752-2.75973973s1.96768176 1.2409807 1.96768176 2.75973973zm5.03788155 5.04648011c0 1.51876231-.88150133 2.75973974-1.96768177 2.75973974-1.08618044 0-1.96768176-1.24097743-1.96768176-2.75973974 0-1.52735758.88150132-2.75973973 1.96768176-2.75973973 1.08618044 0 1.96768177 1.23238215 1.96768177 2.75973973z"/>
        </g>
        <path fill="#690027" d="M159.59931431 202.25394799c-.49019974 8.59828108-6.31240351 16.94973996-19.54865618 16.41223995-12.67296682-.51427964-17.85789977-9.29230041-17.85789977-17.95594169 0-2.6616978 3.9646006-8.86832038 3.9646006-8.86832038-1.93586613 4.98886224 1.2736493 15.35788173 14.74469079 15.33380183 13.75226448-.02493942 16.63154416-9.6870401 15.28908671-14.5210988 2.7330747 1.6632384 3.57759665 6.62715793 3.40817785 9.59931909z" opacity=".4"/>
        <path fill="#F1F1F1" d="M159.59931431 202.25136612c-.00860184.08170105-.00860184.1634021-.01633758.24509988-.9227849-11.4156387-12.19136236-25.63144117-18.7153212-25.63144117-5.92024242 0-17.63774261 14.04466134-18.60954683 25.46030331-.04901275-.53921906-.06535034-1.07758188-.06535034-1.61680094.00859528-14.150439 12.49321402-31.55168029 18.67489716-31.55168029 7.02276043 0 19.54779665 18.76434052 18.7316588 33.09451921z" opacity=".24"/>
        <path fill="none" stroke="#720027" stroke-miterlimit="10" stroke-width="6.88" d="M140.86678943 169.16028502c-6.18253611 0-19.48673738 17.39608412-19.49104158 31.54996123-.00257202 8.66364128 5.99937144 17.43994136 18.6740442 17.95336147 13.23798483.53664048 19.87460085-7.80880006 20.36566012-16.4088002.818723-14.33362009-12.52847433-33.0945225-19.54866274-33.0945225z"/>
      </g>
    </g>
    <g clip-path="url(#m)" style="display:block" transform="matrix(.99992 0 0 1.00009 34.01948166 -16.10182571)">
      <g style="display:block">
        <path fill="#E4DECE" d="M123.86939665 134.12539152c-16.55219965 0-29.96980091 7.70420156-29.96980091 17.20600098l.28559999 89.42919884c0 9.50319732 13.41900116 17.206001 29.97120081 17.206001 16.55219699 0 29.96979624-7.70280368 29.96979624-17.206001l-.28559798-89.42919884c0-9.50179942-13.4189985-17.20600098-29.97119815-17.20600098z"/>
        <path fill="#FEFAEA" d="M153.8405948 151.3313925c0 9.5032-13.4189985 17.20599966-29.97119815 17.20599966s-29.96980091-7.7041999-29.96980091-17.20599966c0-9.50179942 13.41760126-17.20600098 29.96980091-17.20600098 16.55219966 0 29.97119815 7.702801 29.97119815 17.20600098z"/>
        <path fill="none" stroke="#ACA094" stroke-miterlimit="10" stroke-width="8.399999999999999" d="M123.86939665 134.12539152c-16.55219965 0-29.96980091 7.70420156-29.96980091 17.20600098l.28559999 89.42919884c0 9.50319732 13.41900116 15.75979435 29.97120081 15.75979435 16.55219699 0 29.96979624-6.25659703 29.96979624-15.75979435l-.28559798-89.42919884c0-9.50179942-13.4189985-17.20600098-29.97119815-17.20600098z"/>
        <path fill="none" stroke="#CEC6BE" stroke-miterlimit="10" stroke-width="8.399999999999999" d="M153.58719514 149.06759307c-1.93060223-8.43219953-14.49839834-14.94220155-29.7136008-14.94220155-15.24599888 0-27.83339891 6.53520153-29.72479864 14.99260056"/>
        <path fill="#CEC6BE" d="M90.15482961 147.57998467s-2.65408722 5.31087103 7.87822898 12.67354158l-.00140114-7.87246909s.13165375-2.82350055.32913572-3.5153709l-8.20596356-1.28570159zM157.5918747 147.0145356s1.90879008 6.61103336-7.92696191 12.74883167l.00242706-8.36920025s.0561728-1.44759235-.14114108-2.13921707l8.06567592-2.24041435z"/>
        <path fill="none" stroke="#666" stroke-linecap="round" stroke-linejoin="round" stroke-width="5.6" d="M123.3079953 146.12339222s-.79799956 5.04839984 0 8.74020056"/>
        <path fill="#FFF176" d="M124.68902427 93.46236849s-3.82411842 6.9838923-9.06412934 18.46492827c-8.20114588 17.9666985-4.26046504 32.8707938 7.65176237 32.89455305 14.66637104.02925247 14.84621314-16.66596813 9.09314505-29.49319665-2.51806428-5.6348806-7.67048065-17.21196684-7.68077808-21.86628467z"/>
        <path fill="none" stroke="#E5A600" stroke-linecap="round" stroke-linejoin="round" stroke-width="8.4" d="M124.68902427 93.46236849s-3.82411842 6.9838923-9.06412934 18.46492827c-8.20114588 17.9666985-4.26046504 32.8707938 7.65176237 32.89455305 14.66637104.02925247 14.84621314-16.66596813 9.09314505-29.49319665-2.51806428-5.6348806-7.67048065-17.21196684-7.68077808-21.86628467z"/>
        <path fill="url(#n)" d="M86.6269989-59.52799988C81.8939972-27.16799927 51.82400131-4.77299976 19.4640007-9.50599957c-32.3600006-4.73300075-54.75500107-34.80299854-50.02200126-67.16299915 4.7329998-32.3600006 34.80300045-54.75499725 67.1630001-50.02200317 32.3599968 4.7330017 54.75500107 34.8030014 50.02199936 67.16300201z" transform="matrix(1.05 .0021 -.0021 1.05 93.33602996 172.94418822)"/>
      </g>
    </g>
    <g clip-path="url(#q)" style="display:block" transform="matrix(.99992 0 0 1.00009 70.75130463 6.95983744)">
      <g style="display:block">
        <path fill="#929EB0" d="M168.29901123 279.5789833c-.00700378 7.07999993-12.1230011 12.80799866-27.06399536 12.79399873-14.94100952-.01399994-27.04701233-5.76399994-27.04000855-12.84399796.00700379-7.08000183 12.1230011-12.80900192 27.06399537-12.79500198 14.94100952.01399994 27.0470047 5.76499939 27.04000854 12.84500122z" opacity=".3"/>
        <path fill="#BF113A" d="M140.79800415 226.97998047c-7.18899536 0-21.70899963 20.22800445-21.71398926 36.68600082-.00300598 10.07400131 6.02600098 20.27900124 20.76399231 20.87600136 15.39300537.62400055 22.16100311-9.07999992 22.73200226-19.07999992.95199585-16.66699982-13.61899567-38.48200226-21.78200531-38.48200226z"/>
        <g opacity=".6">
          <path fill="#FF0057" d="M135.49301147 253.71298218c0 1.77500152-1.02500915 3.20999908-2.28800964 3.20999908-1.26300049 0-2.28799438-1.43499756-2.28799438-3.20999908 0-1.76599884 1.0249939-3.20899964 2.28799438-3.20899964 1.26300049 0 2.28800964 1.4430008 2.28800964 3.20899964zm5.7539978 5.76399994c0 1.76599884-1.02499389 3.20899963-2.28799438 3.20899963-1.26300049 0-2.28900146-1.4430008-2.28900146-3.20899963 0-1.77600098 1.02600097-3.20999909 2.28900146-3.20999909 1.2630005 0 2.28799439 1.43399811 2.28799439 3.20999909zm-11.52700805-11.53700257c0 1.76600266-1.0349884 3.2100029-2.28799438 3.2100029-1.2630005 0-2.28799439-1.44400024-2.28799439-3.2100029 0-1.76599884 1.0249939-3.20899963 2.28799439-3.20899963 1.25300598 0 2.28799438 1.4430008 2.28799438 3.20899963zm4.00700378 16.46400452c0 1.76599884-1.03500366 3.20999908-2.28799438 3.20999908-1.26300049 0-2.28799438-1.44400024-2.28799438-3.20999908 0-1.77600098 1.0249939-3.20899963 2.28799438-3.20899963 1.25299072 0 2.28799438 1.43299865 2.28799438 3.20899963zm-5.78199768-5.77200317c0 1.76600265-1.0249939 3.1990013-2.28799438 3.1990013-1.25300598 0-2.28900147-1.43299865-2.28900147-3.1990013 0-1.77499772 1.03599549-3.20999909 2.28900147-3.20999909 1.26300049 0 2.28799438 1.43500137 2.28799438 3.20999909zm19.14100647 6.67500305c0 1.77599716-1.02500915 3.20899963-2.28800964 3.20899963-1.26300049 0-2.28799438-1.43300247-2.28799438-3.20899963 0-1.76600266 1.0249939-3.2100029 2.28799438-3.2100029 1.26300049 0 2.28800964 1.44400024 2.28800964 3.2100029zm5.7539978 5.76300049c0 1.76599884-1.02500152 3.20899963-2.288002 3.20899963-1.25299836 0-2.28800202-1.4430008-2.28800202-3.20899963 0-1.76600266 1.03500366-3.20900345 2.28800201-3.20900345 1.2630005 0 2.28800202 1.4430008 2.28800202 3.20900345zm-13.28300475-.83600235c0 1.77500152-1.0249939 3.20899963-2.28799439 3.20899963-1.26300049 0-2.28900146-1.4339981-2.28900146-3.20899963 0-1.76599884 1.02600097-3.20899964 2.28900146-3.20899964 1.26300049 0 2.28799439 1.4430008 2.28799439 3.20899964zm5.89599609 5.89699936c0 1.76600265-1.0349884 3.20899963-2.28799439 3.20899963-1.26300048 0-2.28799438-1.44299698-2.28799438-3.20899963 0-1.77599717 1.0249939-3.20999909 2.28799438-3.20999909 1.25300599 0 2.28799439 1.43400192 2.28799439 3.20999909zm-19.397995-6.98899842c0 1.77600098-1.0249939 3.20999909-2.28799438 3.20999909-1.26300049 0-2.28800964-1.43399811-2.28800964-3.20999909 0-1.76599884 1.02500915-3.20899963 2.28800964-3.20899963 1.26300049 0 2.28799438 1.4430008 2.28799438 3.20899963zm-5.77200317-5.77199936c0 1.76599884-1.02600098 3.20899964-2.28900146 3.20899964-1.2630005 0-2.28799439-1.4430008-2.28799439-3.20899964 0-1.76600265 1.0249939-3.2100029 2.28799439-3.2100029 1.26300048 0 2.28900146 1.44400025 2.28900146 3.2100029zm11.61199951 11.61199951c0 1.76599885-1.02600097 3.20899964-2.28900146 3.20899964-1.2630005 0-2.28799439-1.4430008-2.28799439-3.20899964s1.0249939-3.20999908 2.28799439-3.20999908c1.26300049 0 2.28900146 1.44400024 2.28900146 3.20999908zm5.88600159 5.88599778c0 1.77600097-1.0249939 3.21000099-2.28799439 3.21000099-1.26300048 0-2.28800964-1.43400002-2.28800964-3.210001 0-1.76599883 1.02500916-3.20899963 2.28800964-3.20899963 1.2630005 0 2.28799439 1.4430008 2.28799439 3.20899964zm-.59799194-38.0929947c0 1.76599885-1.02500916 3.2099991-2.28800965 3.2099991-1.26300049 0-2.28799438-1.44400025-2.28799438-3.2099991 0-1.76600646 1.0249939-3.20900726 2.28799438-3.20900726 1.2630005 0 2.28800965 1.4430008 2.28800965 3.20900727zm5.83000183 5.83999634c0 1.76599885-1.02500916 3.20899964-2.28800965 3.20899964-1.25299072 0-2.28900146-1.4430008-2.28900146-3.20899964 0-1.77600097 1.03601074-3.20999908 2.28900146-3.20999908 1.2630005 0 2.28800965 1.4339981 2.28800965 3.20999908zm5.76300049 5.75299836c0 1.76600265-1.02500916 3.2100029-2.28800965 3.2100029-1.26300049 0-2.28799438-1.44400025-2.28799438-3.2100029 0-1.76599884 1.0249939-3.20899964 2.28799438-3.20899964 1.26300049 0 2.28800965 1.4430008 2.28800965 3.20899964zm5.83999633 5.84000015c0 1.76600265-1.03600311 3.20900345-2.28900146 3.20900345-1.26300049 0-2.28800202-1.4430008-2.28800202-3.20900345 0-1.76599884 1.02500153-3.20899963 2.28800202-3.20899963 1.25299835 0 2.28900146 1.44300079 2.28900146 3.20899963zm5.77199555 5.77300262c0 1.76599884-1.02500153 3.20899964-2.28800202 3.20899964-1.26300048 0-2.28799438-1.4430008-2.28799438-3.20899964 0-1.76600265 1.0249939-3.2100029 2.28799438-3.2100029 1.2630005 0 2.28800202 1.44400025 2.28800202 3.2100029zm-16.3120041-28.48500442c0 1.76600647-1.02499389 3.20899963-2.27799987 3.20899963-1.26300049 0-2.28900146-1.44299316-2.28900146-3.20899963 0-1.76599884 1.02600097-3.20899963 2.28900146-3.20899963 1.25300598 0 2.27799988 1.44300079 2.27799988 3.20899963zm5.84000398 5.84000397c0 1.76599884-1.02599335 3.20899963-2.28899384 3.20899963-1.26300049 0-2.28800964-1.4430008-2.28800964-3.20899963 0-1.77600098 1.02500915-3.20999909 2.28800964-3.20999909 1.26300049 0 2.28899384 1.43399811 2.28899384 3.20999909zm5.76300048 5.75299835c0 1.77600097-1.02500152 3.2100029-2.28800201 3.2100029s-2.28799439-1.43400193-2.28799439-3.2100029c0-1.76599884 1.0249939-3.20899964 2.28799439-3.20899964 1.26300049 0 2.28800201 1.4430008 2.28800201 3.20899964zm5.85800171 5.86800003c0 1.76600265-1.02500152 3.20899963-2.28800201 3.20899963s-2.28800202-1.44299698-2.28800202-3.20899963c0-1.77599716 1.02500153-3.20899963 2.28800202-3.20899963s2.28800201 1.43300247 2.28800201 3.20899963z"/>
        </g>
        <path fill="#90002F" d="M162.58000946 265.46098328c-.5699997 9.9980011-7.34000397 19.70899963-22.73099518 19.08399963-14.73600769-.59799957-20.76499939-10.8050003-20.76499939-20.87900162 0-3.0949974 4.61000061-10.31200027 4.61000061-10.31200027-2.25100708 5.8010025 1.48098755 17.8580017 17.14498902 17.83000183 15.99100494-.02899933 19.33900451-11.26399994 17.7780075-16.88499832 3.17799378 1.9339981 4.15999604 7.70599746 3.96299744 11.16199875z" opacity=".4"/>
        <path fill="#F1F1F1" d="M162.58000946 265.45798111c-.01000214.09500122-.01000214.19000244-.0189972.28499985-1.07300567-13.27399826-14.1760025-29.80400086-21.76200103-29.80400086-6.88400269 0-20.50900269 16.33100128-21.63900757 29.60500336-.05699158-.6269989-.07598877-1.25300217-.07598877-1.88000107.0099945-16.45399856 14.5269928-36.68799972 21.71499634-36.68799972 8.16600037 0 22.72999573 21.81900024 21.78099823 38.48199844z" opacity=".4"/>
        <path fill="none" stroke="#9A0039" stroke-miterlimit="10" stroke-width="8" d="M140.79800415 226.97998047c-7.18899536 0-22.65899658 20.22800445-22.66400146 36.68600082-.00299073 10.07400131 6.97601318 20.27900124 21.71400451 20.87600136 15.39300537.62400055 23.11000061-9.07999992 23.68099976-19.07999992.95200348-16.66699982-14.56799317-38.48200226-22.73100281-38.48200226z"/>
      </g>
    </g>
    <g style="display:block">
      <path fill="#E4DECE" d="M256.23477534 117.96103224c-16.58151879 0-30.023113 7.71889061-30.023113 17.23974588v90.3276712c0 9.52085096 13.44159421 17.23974024 30.023113 17.23974024 16.58151613 0 30.02311435-7.71888928 30.02311435-17.23974024v-90.3276712c0-9.52085527-13.44159822-17.23974588-30.02311435-17.23974588z"/>
      <path fill="#FFFBEB" d="M286.25788969 135.20077812c0 9.52084992-13.44159822 17.23974053-30.02311435 17.23974053-16.58151879 0-30.023113-7.71889061-30.023113-17.23974053 0-9.52085527 13.44159421-17.23974588 30.023113-17.23974588 16.58151613 0 30.02311435 7.71889061 30.02311435 17.23974588z"/>
      <path fill="none" stroke="#ADA195" stroke-miterlimit="10" stroke-width="6" d="M-34.17399979-77.09400177c-11.84500122 0-21.4469986 5.51300049-21.4469986 12.31300354V-.26699999c0 6.79999998 9.60199738 11.17600039 21.4469986 11.17600039C-22.32900047 10.9090004-12.72700024 6.533-12.72700024-.267v-64.51399824c0-6.80000305-9.60200023-12.31300354-21.44699955-12.31300354z" transform="matrix(1.39987 0 0 1.40013 304.07409668 225.90228271)"/>
      <path fill="none" stroke="#CEC6BE" stroke-miterlimit="10" stroke-width="6" d="M-12.88700008-66.43099976c-1.38300038-6.04299926-10.38899899-10.70800018-21.29300023-10.70800018-10.92499923 0-19.94499969 4.68299866-21.30099868 10.7440033" transform="matrix(1.39987 0 0 1.40013 304.07409668 225.90228271)"/>
      <path fill="#CEC6BE" d="M289.94656012 131.09421294s2.86274409 7.12943058-8.27326122 13.67641927l.00140177-8.6471764s.06719313-1.7109531-.16658704-2.52862568l8.4384465-2.50061719zM222.46279564 131.46524525s-3.02233026 7.63347649 7.58591978 13.42719502l-.0013991-8.52115958s.07979175-2.273804.5403539-3.15447965l-8.12487458-1.75155579z"/>
      <path fill="none" stroke="#666" stroke-linecap="round" stroke-linejoin="round" stroke-width="4" d="M-34.24599838-70.67700195s-.67200089 3.51599884 0 6.62400055" transform="matrix(1.39987 0 0 1.40013 304.07409668 225.90228271)"/>
      <path fill="#FFF176" d="M255.97567643 70.77520877s-3.90766254 7.38736607-9.7131614 19.74002123c-8.70793992 18.77163749-4.39308151 35.80457777 8.49644397 35.78880297 16.10945073-.0246997 15.51398235-18.46711732 9.71131106-31.84536692-2.65070412-6.12591872-8.49459363-18.64616012-8.49459363-23.68345728z"/>
      <path fill="none" stroke="#E5A600" stroke-linecap="round" stroke-linejoin="round" stroke-width="8" d="M-34.08011627-124.20586395s-3.7219162 7.03495788-9.25145722 18.79833984c-8.29401779 17.87615204-4.18426132 34.09654999 8.09257508 34.08152771 15.34370613-.02352142 14.77654266-17.58615875 9.24969482-30.32621002-2.52470589-5.83368683-8.09081268-17.75666046-8.09081268-22.55365753z" transform="matrix(1.0499 0 0 1.0501 291.75659856 201.2030238)"/>
      <path fill="url(#E)" d="M28.20800018-108.28800201C23.08600044-73.27100372-9.45300007-49.0359993-44.47000122-54.15800095c-35.0169983-5.12199783-59.25299835-37.66199874-54.1309967-72.67899704 5.12200164-35.01700592 37.66199874-59.25200653 72.67899703-54.12999725 35.01700116 5.12199402 59.25200272 37.66200256 54.13000107 72.67899323z" transform="matrix(1.0499 0 0 1.0501 292.1641775 201.2030238)"/>
    </g>
    <g clip-path="url(#S)" style="display:block" transform="matrix(.99992 0 0 1.00009 5.64988756 -10.8629837)">
      <g style="display:block">
        <path fill="#929EB0" d="M393.23344965 216.6912733c-.00575683 6.1526384-10.5359983 11.13119909-23.5200068 11.11871862-12.98399384-.01248047-23.50463326-5.01023976-23.49887642-11.16288.00575683-6.15264024 10.53600562-11.13120092 23.51999947-11.11872046 12.98400118.01248047 23.50464059 5.0102416 23.49888375 11.16288184z" opacity=".3"/>
        <path fill="#B1002F" d="M369.33328661 170.98087637c-6.24767564 0-18.86496051 17.57855673-18.86975055 31.88063527-.00288574 8.75519878 5.236787 17.62367942 18.04414999 18.14303976 13.3766452.5424005 19.25856402-7.89119917 19.75488237-16.58208032.82751951-14.48447722-11.8358347-33.44159471-18.9292818-33.44159471z"/>
        <g opacity=".3">
          <path fill="#DF0045" d="M364.72336484 194.21287292c0 1.54271847-.8918408 2.78879876-1.98911128 2.78879876-1.09728513 0-1.98815914-1.24608029-1.98815914-2.78879876 0-1.53503903.890874-2.78879877 1.98815914-2.78879877 1.09727048 0 1.98911128 1.25375974 1.98911128 2.78879877zm5.00063954 5.00831898c0 1.53503903-.8918408 2.7897619-1.98911128 2.7897619-1.09728514 0-1.98815914-1.25472287-1.98815914-2.7897619 0-1.54271847.890874-2.78879877 1.98815914-2.78879877 1.09727048 0 1.98911128 1.2460803 1.98911128 2.78879877zm-10.01759743-10.02528054c0 1.5350427-.89854979 2.78880243-1.98815914 2.78880243-1.09727048 0-1.98911128-1.25375974-1.98911128-2.78880243 0-1.53503903.8918408-2.7887951 1.98911128-2.7887951 1.08960935 0 1.98815914 1.25375607 1.98815914 2.7887951zm3.48191886 14.3078427c0 1.53503903-.89854978 2.78879876-1.98815913 2.78879876-1.09727048 0-1.98911128-1.25375973-1.98911128-2.78879876 0-1.54272213.8918408-2.78880243 1.98911128-2.78880243 1.08960935 0 1.98815913 1.2460803 1.98815913 2.78880243zm-5.02463367-5.01696156c0 1.53503903-.8918408 2.78111932-1.98912593 2.78111932-1.0895947 0-1.98815914-1.2460803-1.98815914-2.78111932 0-1.54271847.89856443-2.78879877 1.98815914-2.78879877 1.09728513 0 1.98912593 1.2460803 1.98912593 2.78879877zm16.63488244 5.80127917c0 1.54272213-.8918408 2.78879876-1.98912593 2.78879876-1.09728514 0-1.98815914-1.24607663-1.98815914-2.78879876 0-1.53503903.890874-2.78879877 1.98815914-2.78879877 1.09728513 0 1.98912593 1.25375974 1.98912593 2.78879877zm4.99967274 5.00831898c0 1.53504269-.890874 2.78880243-1.98815914 2.78880243-1.0895947 0-1.98911128-1.25375974-1.98911128-2.78880243 0-1.53503903.89951658-2.78879877 1.98911128-2.78879877 1.09728513 0 1.98815914 1.25375974 1.98815914 2.78879877zm-11.54304174-.72575682c0 1.54271847-.8918408 2.78879876-1.98911128 2.78879876-1.09728513 0-1.98815914-1.2460803-1.98815914-2.78879876 0-1.5350427.890874-2.7897619 1.98815914-2.7897619 1.09727048 0 1.98911128 1.2547192 1.98911128 2.7897619zm5.12352528 5.12351795c0 1.53503903-.89856443 2.78879877-1.98815914 2.78879877-1.09728513 0-1.98912593-1.25375974-1.98912593-2.78879877 0-1.54271847.8918408-2.78879877 1.98912593-2.78879877 1.0895947 0 1.98815914 1.2460803 1.98815914 2.78879877zm-16.85759728-6.07296007c0 1.54272213-.89088865 2.78879877-1.98815913 2.78879877-1.09728514 0-1.98815914-1.24607664-1.98815914-2.78879877 0-1.53503903.890874-2.78879877 1.98815914-2.78879877 1.09727048 0 1.98815913 1.25375974 1.98815913 2.78879877zm-5.01600575-5.0169579c0 1.53503903-.8918408 2.78879877-1.98911128 2.78879877-1.09728513 0-1.98815914-1.25375974-1.98815914-2.78879877 0-1.53504269.890874-2.78880242 1.98815914-2.78880242 1.09727048 0 1.98911128 1.25375973 1.98911128 2.78880242zm10.0915281 10.09151711c0 1.5350427-.8918408 2.78880243-1.98912593 2.78880243-1.09728514 0-1.98815914-1.25375974-1.98815914-2.78880243 0-1.53503902.890874-2.78879876 1.98815914-2.78879876 1.09728513 0 1.98912593 1.25375974 1.98912593 2.78879876zm5.11486805 5.11584217c0 1.54271848-.890874 2.78879877-1.98815914 2.78879877-1.09727048 0-1.98911128-1.2460803-1.98911128-2.78879877 0-1.53504269.8918408-2.78880242 1.98911128-2.78880242 1.09728513 0 1.98815914 1.25375973 1.98815914 2.78880242zm-.51936034-33.1036809c0 1.53503903-.8918408 2.78879877-1.98911129 2.78879877-1.09728513 0-1.98815913-1.25375974-1.98815913-2.78879877 0-1.53503902.890874-2.78975823 1.98815913-2.78975823 1.09727049 0 1.98911129 1.2547192 1.98911129 2.78975823zm5.06592762 5.07359974c0 1.53503903-.89088865 2.7897619-1.98815914 2.7897619-1.08960935 0-1.98912593-1.25472287-1.98912593-2.7897619 0-1.54271847.89951658-2.78880242 1.98912593-2.78880242 1.09727049 0 1.98815914 1.24608395 1.98815914 2.78880242zm5.00928211 5.00063954c0 1.5350427-.8918408 2.78880243-1.98912593 2.78880243-1.09727048 0-1.98815913-1.25375974-1.98815913-2.78880243 0-1.53503903.89088865-2.78879877 1.98815913-2.78879877 1.09728513 0 1.98912593 1.25375974 1.98912593 2.78879877zm5.07455555 5.07455921c0 1.5350427-.89951658 2.78880243-1.9891186 2.78880243-1.09727781 0-1.98815914-1.25375974-1.98815914-2.78880243 0-1.53503903.89088133-2.78879876 1.98815914-2.78879876 1.08960202 0 1.9891186 1.25375973 1.9891186 2.78879876zm5.01599843 5.01696156c0 1.53503903-.89088133 2.78879877-1.98815914 2.78879877-1.0972778 0-1.98815913-1.25375974-1.98815913-2.78879877s.89088132-2.78879876 1.98815913-2.78879876c1.0972778 0 1.98815914 1.25375973 1.98815914 2.78879876zm-14.17535857-24.7535993c0 1.53503903-.890874 2.78879877-1.98048336 2.78879877-1.09727048 0-1.98815913-1.25375974-1.98815913-2.78879877s.89088865-2.78975824 1.98815913-2.78975824c1.08960935 0 1.98048336 1.25471921 1.98048336 2.78975824zm5.07456287 5.07456288c0 1.53503902-.89088133 2.7887951-1.98816646 2.7887951-1.09727048 0-1.98911128-1.25375608-1.98911128-2.7887951 0-1.54272214.8918408-2.78976557 1.98911128-2.78976557 1.09728513 0 1.98816646 1.24704343 1.98816646 2.78976557zm5.00831532 4.9996764c0 1.54272213-.890874 2.78879876-1.98815914 2.78879876-1.0972778 0-1.98815913-1.24607663-1.98815913-2.78879876 0-1.53503903.89088133-2.78879877 1.98815913-2.78879877 1.09728514 0 1.98815914 1.25375974 1.98815914 2.78879877zm5.0918407 5.09952015c0 1.53503903-.8918408 2.78879876-1.9891186 2.78879876s-1.98815914-1.25375973-1.98815914-2.78879876c0-1.54271847.89088133-2.78879877 1.98815914-2.78879877 1.0972778 0 1.9891186 1.2460803 1.9891186 2.78879877z"/>
        </g>
        <path fill="#690027" d="M388.26256842 204.4215116c-.49535888 8.68896221-6.37919664 17.12928002-19.75391558 16.58592005-12.8063962-.52031982-18.04511678-9.39072123-18.04511678-18.14496054 0-2.68991815 4.00606925-8.96159892 4.00606925-8.96159892-1.95647457 5.04191884 1.2864111 15.52031948 14.89920376 15.49535854 13.8969577-.02495727 16.80672326-9.7900779 15.45024136-14.674559 2.76191888 1.68095944 3.61439933 6.69600205 3.44351799 9.69983988z" opacity=".4"/>
        <path fill="#F1F1F1" d="M388.26256842 204.41959266c-.00864258.0825586-.00864258.16512085-.01631836.24767944-.93216062-11.53535863-12.31872043-25.90080264-18.91199665-25.90080264-5.98272936 0-17.82240194 14.19264372-18.80447712 25.72800235-.04992187-.54432128-.06624023-1.08959836-.06624023-1.63391964.00862793-14.29920012 12.62399386-31.88352102 18.87071735-31.88352102 7.0963182 0 19.7529561 18.96096271 18.928315 33.44256151z" opacity=".24"/>
        <path fill="none" stroke="#720027" stroke-miterlimit="10" stroke-width="7.68" d="M369.33328661 170.98087637c-6.24767564 0-19.69056108 17.57855673-19.69535112 31.88063527-.00288574 8.75519878 6.06238756 17.62367942 18.86975056 18.14303976 13.3766452.5424005 20.08416459-7.89119917 20.58048294-16.58208032.8275195-14.48447722-12.66143527-33.44159471-19.75488238-33.44159471z"/>
      </g>
    </g>
    <g clip-path="url(#T)" style="display:block" transform="matrix(.99992 0 0 1.00009 -33.47262192 -16.38685417)">
      <g style="display:block">
        <path fill="#E5DFCF" d="M387.16353842 134.1809152c-16.56531344 0-29.99354778 7.71029516-29.99354778 17.2196288l.2843356 89.50382939c0 9.51072753 13.42962758 17.21963014 29.99494101 17.21963014 16.56531611 0 29.99354312-7.70890261 29.99354312-17.21963014l-.28433761-89.50382939c0-9.50933364-13.4296209-17.2196288-29.99493434-17.2196288z"/>
        <path fill="#FFFBEB" d="M417.15847276 151.400544c0 9.5107272-13.4296209 17.21963481-29.99493434 17.21963481s-29.99354778-7.7103015-29.99354778-17.2196348c0-9.50933365 13.42823434-17.21962881 29.99354778-17.21962881s29.99493434 7.70890127 29.99493434 17.2196288z"/>
        <path fill="none" stroke="#ADA195" stroke-miterlimit="10" stroke-width="8.399999999999999" d="M387.16353842 134.1809152c-16.56531344 0-29.99354778 7.71029516-29.99354778 17.2196288l.2843356 89.50382939c0 9.51072753 13.42962758 15.77228061 29.99494101 15.77228061 16.56531611 0 29.99354312-6.26155308 29.99354312-15.77228061l-.28433761-89.50382939c0-9.50933364-13.4296209-17.2196288-29.99493434-17.2196288z"/>
        <path fill="none" stroke="#CEC6BE" stroke-miterlimit="10" stroke-width="8.399999999999999" d="M416.9048755 149.13495147c-1.9321243-8.43888326-14.50989126-14.95403627-29.73714205-14.95403627-15.25807927 0-27.85545016 6.5403819-29.7483506 15.00447934"/>
        <path fill="#CEC6BE" d="M353.29910972 147.52708158s-2.46873437 5.49667912 8.05926576 12.85647928l-.00000668-8.36920576s-.05739383-1.44619996.14000588-2.13780056l-8.19926496-2.34947296zM420.5316447 146.75738975s3.04189066 6.14121255-7.4861098 13.50101305l.00139923-8.3692001s.05600662-1.44759919-.14139175-2.13919978l7.62610232-2.99261317z"/>
        <path fill="none" stroke="#666" stroke-linecap="round" stroke-linejoin="round" stroke-width="5.6" d="M386.61082618 146.19227135s-.79863241 5.04783507 0 8.74256176"/>
        <path fill="#FFF176" d="M387.78304155 93.01715306s-3.78863333 6.94300173-8.99727113 18.43837332c-8.15205084 17.98914823-4.12288062 32.9325211 7.78936289 32.91920443 14.66639086-.01639553 14.74266719-16.7088648 8.97542514-29.47970566-2.53314412-5.62817628-7.7444977-17.2235749-7.7675169-21.8778721z"/>
        <path fill="none" stroke="#E5A600" stroke-linecap="round" stroke-linejoin="round" stroke-width="8.4" d="M387.78304155 93.01715306s-3.78863333 6.94300173-8.99727113 18.43837332c-8.15205084 17.98914823-4.12288062 32.9325211 7.78936289 32.91920443 14.66639086-.01639553 14.74266719-16.7088648 8.97542514-29.47970566-2.53314412-5.62817628-7.7444977-17.2235749-7.7675169-21.8778721z"/>
        <path fill="url(#U)" d="M86.6269989-59.52799988C81.8939972-27.16799927 51.82400131-4.77299976 19.4640007-9.50599957c-32.3600006-4.73300075-54.75500107-34.80299854-50.02200126-67.16299915 4.7329998-32.3600006 34.80300045-54.75499725 67.1630001-50.02200317 32.3599968 4.7330017 54.75500107 34.8030014 50.02199936 67.16300201z" transform="matrix(1.05 -.00117 .00117 1.05 356.67889393 172.59016874)"/>
      </g>
    </g>
    <g clip-path="url(#X)" style="display:block" transform="matrix(.99992 0 0 1.00009 10.86414337 -14.85748196)">
      <g style="display:block">
        <path fill="#929EB0" d="M394.76703644 280.042984c-.0059967 6.4089985-10.97499848 11.59499932-24.50000763 11.58199883-13.5249939-.01300048-24.48399353-5.21899986-24.47799683-11.62800026.0059967-6.4090004 10.9750061-11.59500122 24.5-11.58200073 13.52500153.01300049 24.48400116 5.21900177 24.47800446 11.62800217z" opacity=".3"/>
        <path fill="#BF113A" d="M369.87103271 232.42798615c-6.5079956 0-19.65100097 18.310997-19.6559906 33.20899581-.00300598 9.11999894 5.45498658 18.3579998 18.79599 18.89900017 13.93400573.56500054 20.06100463-8.21999931 20.57800292-17.27300072.86199952-15.08799743-12.32899475-34.83499526-19.71800232-34.83499526z"/>
        <g opacity=".6">
          <path fill="#FF0057" d="M365.06903076 256.6279831c0 1.60699844-.92900085 2.90499877-2.07199097 2.90499877-1.14300537 0-2.07099914-1.29800033-2.07099914-2.90499878 0-1.59899902.92799377-2.90499878 2.07099914-2.90499878 1.14299012 0 2.07199097 1.30599976 2.07199097 2.90499878zm5.20899964 5.21699905c0 1.59899902-.92900086 2.90600204-2.07199097 2.90600204-1.14300537 0-2.07099915-1.30700302-2.07099915-2.90600204 0-1.60699845.92799378-2.90499878 2.07099915-2.90499878 1.14299011 0 2.07199097 1.29800033 2.07199097 2.90499878zm-10.43499756-10.4430008c0 1.59900284-.93598938 2.9050026-2.07099915 2.9050026-1.14299011 0-2.07199097-1.30599976-2.07199097-2.9050026 0-1.59899902.92900086-2.90499496 2.07199097-2.90499496 1.13500977 0 2.07099915 1.30599594 2.07099915 2.90499496zm3.6269989 14.90400315c0 1.59899902-.93598938 2.90499878-2.07099915 2.90499878-1.14299011 0-2.07199096-1.30599976-2.07199096-2.90499878 0-1.60700226.92900085-2.9050026 2.07199096-2.9050026 1.13500977 0 2.07099915 1.29800034 2.07099915 2.9050026zm-5.23399353-5.22600174c0 1.59899902-.92900086 2.89699936-2.07200623 2.89699936-1.1349945 0-2.07099914-1.29800034-2.07099914-2.89699936 0-1.60699845.93600464-2.90499878 2.07099914-2.90499878 1.14300537 0 2.07200623 1.29800033 2.07200623 2.90499878zm17.32800293 6.04299927c0 1.60700225-.92900086 2.90499877-2.07200623 2.90499877s-2.07099914-1.29799652-2.07099914-2.90499877c0-1.59899903.92799377-2.90499878 2.07099914-2.90499878s2.07200623 1.30599975 2.07200623 2.90499878zm5.20799255 5.21699905c0 1.59900284-.92799377 2.9050026-2.07099914 2.9050026-1.13499451 0-2.07199097-1.30599976-2.07199097-2.9050026 0-1.59899902.93699646-2.90499878 2.07199097-2.90499878 1.14300537 0 2.07099914 1.30599976 2.07099914 2.90499878zm-12.02400207-.7559967c0 1.60699844-.92900086 2.90499877-2.07199097 2.90499877-1.14300537 0-2.07099915-1.29800033-2.07099915-2.90499878 0-1.59900283.92799378-2.90600204 2.07099915-2.90600204 1.14299011 0 2.07199097 1.3069992 2.07199097 2.90600204zm5.33700561 5.33699798c0 1.59899902-.93600464 2.90499878-2.07099914 2.90499878-1.14300538 0-2.07200623-1.30599976-2.07200623-2.90499878 0-1.60699844.92900085-2.90499878 2.07200623-2.90499878 1.1349945 0 2.07099914 1.29800034 2.07099914 2.90499878zm-17.55999756-6.32600021c0 1.60700226-.92800903 2.90499878-2.07099914 2.90499878-1.14300537 0-2.07099915-1.29799652-2.07099915-2.90499878 0-1.59899903.92799378-2.90499878 2.07099915-2.90499878 1.14299011 0 2.07099914 1.30599975 2.07099914 2.90499878zm-5.2250061-5.22599793c0 1.59899903-.92900086 2.90499878-2.07199097 2.90499878-1.14300537 0-2.07099914-1.30599975-2.07099914-2.90499878 0-1.59900284.92799377-2.9050026 2.07099914-2.9050026 1.14299011 0 2.07199097 1.30599976 2.07199097 2.9050026zm10.51200867 10.51199723c0 1.59900283-.92900086 2.90500259-2.07200623 2.90500259s-2.07099914-1.30599976-2.07099914-2.9050026c0-1.59899902.92799377-2.90499877 2.07099914-2.90499877s2.07200623 1.30599975 2.07200623 2.90499878zm5.32798767 5.32900238c0 1.60699844-.92799378 2.90499877-2.07099915 2.90499877-1.14299011 0-2.07199097-1.29800033-2.07199097-2.90499877 0-1.59900284.92900086-2.9050026 2.07199097-2.9050026 1.14300537 0 2.07099915 1.30599976 2.07099915 2.9050026zm-.54100037-34.48300171c0 1.59899902-.92900085 2.90499878-2.07199097 2.90499878-1.14300537 0-2.07099914-1.30599976-2.07099914-2.90499878 0-1.59899903.92799377-2.90599823 2.07099914-2.90599823 1.14299012 0 2.07199097 1.3069992 2.07199097 2.90599823zm5.27700806 5.28499984c0 1.59899903-.92800904 2.90600205-2.07099915 2.90600205-1.13500976 0-2.07200622-1.30700302-2.07200622-2.90600205 0-1.60699844.93699646-2.90500259 2.07200622-2.90500259 1.14299011 0 2.07099915 1.29800415 2.07099915 2.9050026zm5.21800232 5.20899964c0 1.59900284-.92900086 2.9050026-2.07200623 2.9050026-1.14299011 0-2.07099914-1.30599976-2.07099914-2.9050026 0-1.59899903.92800903-2.90499878 2.07099914-2.90499878 1.14300537 0 2.07200623 1.30599975 2.07200623 2.90499878zm5.28599548 5.2859993c0 1.59900283-.93699646 2.90500259-2.0719986 2.90500259-1.14299774 0-2.07099914-1.30599976-2.07099914-2.9050026 0-1.59899902.9280014-2.90499877 2.07099914-2.90499877 1.13500214 0 2.0719986 1.30599975 2.0719986 2.90499878zm5.22499847 5.22600174c0 1.59899902-.9280014 2.90499877-2.07099914 2.90499877-1.14299774 0-2.07099915-1.30599975-2.07099915-2.90499877 0-1.59899903.9280014-2.90499878 2.07099915-2.90499878 1.14299774 0 2.07099914 1.30599975 2.07099914 2.90499878zm-14.76599884-25.78499985c0 1.59899902-.92799377 2.90499878-2.06300354 2.90499878-1.1429901 0-2.07099914-1.30599976-2.07099914-2.90499878 0-1.59899903.92800903-2.90599823 2.07099914-2.90599823 1.13500977 0 2.06300354 1.3069992 2.06300354 2.90599823zm5.28600312 5.28600311c0 1.59899902-.9280014 2.90499497-2.07100678 2.90499497-1.14299011 0-2.07199096-1.30599595-2.07199096-2.90499497 0-1.60700226.92900085-2.90600586 2.07199096-2.90600586 1.14300537 0 2.07100678 1.2990036 2.07100678 2.90600586zm5.21699524 5.20799637c0 1.60700226-.92799378 2.90499878-2.07099915 2.90499878-1.14299774 0-2.07099914-1.29799652-2.07099914-2.90499878 0-1.59899902.9280014-2.90499878 2.07099914-2.90499878 1.14300537 0 2.07099915 1.30599976 2.07099915 2.90499878zm5.30400085 5.31200027c0 1.59899903-.92900085 2.90499878-2.0719986 2.90499878-1.14299774 0-2.07099914-1.30599975-2.07099914-2.90499878 0-1.60699844.9280014-2.90499878 2.07099914-2.90499878 1.14299775 0 2.0719986 1.29800034 2.0719986 2.90499878z"/>
        </g>
        <path fill="#90002F" d="M389.58903503 267.26198196c-.51599884 9.0510025-6.64499664 17.84300042-20.57699585 17.27700043-13.33999633-.54199982-18.79699707-9.7820015-18.79699707-18.90100098 0-2.80199813 4.1729889-9.33499908 4.1729889-9.33499908-2.03799439 5.2519989 1.3400116 16.16699982 15.52000427 16.14099884 14.47599792-.02599716 17.50700378-10.19799805 16.09400177-15.2859993 2.8769989 1.75099945 3.76499939 6.9750023 3.58699798 10.1040001z" opacity=".4"/>
        <path fill="#F1F1F1" d="M389.58903503 267.25998306c-.00900268.08599854-.00900268.17200089-.01699829.25799942-.97100067-12.01599884-12.83200073-26.98000335-19.69999695-26.98000335-6.23200988 0-18.56500244 14.7840042-19.58799743 26.80000305-.05200195-.56700135-.06900025-1.13499832-.06900025-1.70199967.00898743-14.89500045 13.1499939-33.2120018 19.65699768-33.2120018 7.3919983 0 20.5759964 19.75100327 19.71699524 34.83600235z" opacity=".4"/>
        <path fill="none" stroke="#9A0039" stroke-miterlimit="10" stroke-width="8" d="M369.87103271 232.42798615c-6.5079956 0-20.51100158 18.310997-20.5159912 33.20899581-.00300599 9.11999894 6.31498718 18.3579998 19.6559906 18.89900017 13.93400573.56500054 20.92100524-8.21999931 21.43800353-17.27300072.86199952-15.08799743-13.18899536-34.83499526-20.57800293-34.83499526z"/>
      </g>
    </g>
    <g clip-path="url(#Y)" style="display:block" transform="matrix(.99992 0 0 1.00009 43.73786545 -20.94722939)">
      <g style="display:block">
        <path fill="#929EB0" d="M282.67800903 310.36899185c-.00700378 7.07999993-12.1230011 12.80799866-27.06399536 12.79399872-14.94100952-.01399994-27.04701233-5.76399994-27.04000854-12.84399796.00700378-7.08000183 12.1230011-12.80900192 27.06399536-12.79500198 14.94100952.01399994 27.0470047 5.7649994 27.04000854 12.84500122z" opacity=".3"/>
        <path fill="#BF113A" d="M255.17700195 257.76998901c-7.18899536 0-21.70899963 20.22800446-21.71398925 36.68600083-.00300599 10.07400131 6.02600097 20.27900123 20.7639923 20.87600136 15.39300538.62400054 22.16100312-9.07999993 22.73200226-19.07999993.95199585-16.66699981-13.61899566-38.48200226-21.7820053-38.48200226z"/>
        <g opacity=".6">
          <path fill="#FF0057" d="M249.87200928 284.50299072c0 1.77500153-1.02500916 3.20999909-2.28800965 3.20999909-1.26300048 0-2.28799438-1.43499756-2.28799438-3.20999909 0-1.76599884 1.0249939-3.20899963 2.28799438-3.20899963 1.2630005 0 2.28800965 1.4430008 2.28800965 3.20899963zm5.7539978 5.76399994c0 1.76599884-1.0249939 3.20899964-2.28799438 3.20899964-1.2630005 0-2.28900147-1.4430008-2.28900147-3.20899964 0-1.77600097 1.02600098-3.20999908 2.28900147-3.20999908 1.26300048 0 2.28799438 1.4339981 2.28799438 3.20999908zm-11.52700806-11.53700256c0 1.76600265-1.0349884 3.2100029-2.28799438 3.2100029-1.26300049 0-2.28799439-1.44400025-2.28799439-3.2100029 0-1.76599884 1.0249939-3.20899964 2.28799439-3.20899964 1.25300598 0 2.28799438 1.4430008 2.28799438 3.20899964zm4.00700379 16.46400451c0 1.76599885-1.03500366 3.20999909-2.28799439 3.20999909-1.26300049 0-2.28799438-1.44400024-2.28799438-3.20999909 0-1.77600097 1.0249939-3.20899963 2.28799438-3.20899963 1.25299073 0 2.28799439 1.43299866 2.28799439 3.20899963zm-5.78199768-5.77200317c0 1.76600266-1.0249939 3.19900131-2.28799439 3.19900131-1.25300598 0-2.28900146-1.43299865-2.28900146-3.1990013 0-1.77499772 1.03599548-3.2099991 2.28900146-3.2099991 1.26300049 0 2.28799439 1.43500138 2.28799439 3.2099991zm19.14100647 6.67500305c0 1.77599716-1.02500916 3.20899964-2.28800965 3.20899964-1.26300049 0-2.28799438-1.43300248-2.28799438-3.20899964 0-1.76600265 1.0249939-3.2100029 2.28799438-3.2100029 1.2630005 0 2.28800965 1.44400025 2.28800965 3.2100029zm5.7539978 5.7630005c0 1.76599883-1.02500153 3.20899962-2.28800201 3.20899962-1.25299836 0-2.28800202-1.44300079-2.28800202-3.20899963 0-1.76600265 1.03500366-3.20900345 2.28800202-3.20900345 1.26300048 0 2.288002 1.4430008 2.288002 3.20900345zm-13.28300476-.83600236c0 1.77500153-1.0249939 3.20899963-2.28799439 3.20899963-1.26300048 0-2.28900146-1.4339981-2.28900146-3.20899963 0-1.76599884 1.02600098-3.20899963 2.28900146-3.20899963 1.2630005 0 2.28799439 1.4430008 2.28799439 3.20899963zm5.8959961 5.89699936c0 1.76600266-1.03498841 3.20899963-2.2879944 3.20899963-1.26300048 0-2.28799438-1.44299697-2.28799438-3.20899963 0-1.77599716 1.0249939-3.20999908 2.28799439-3.20999908 1.25300598 0 2.28799438 1.43400192 2.28799438 3.20999908zm-19.397995-6.98899841c0 1.77600097-1.0249939 3.20999908-2.28799439 3.20999908-1.26300049 0-2.28800964-1.4339981-2.28800964-3.20999908 0-1.76599884 1.02500915-3.20899964 2.28800964-3.20899964 1.2630005 0 2.28799439 1.4430008 2.28799439 3.20899964zm-5.77200318-5.77199936c0 1.76599884-1.02600097 3.20899963-2.28900146 3.20899963-1.26300049 0-2.28799439-1.4430008-2.28799439-3.20899963 0-1.76600266 1.0249939-3.2100029 2.28799439-3.2100029 1.26300049 0 2.28900146 1.44400024 2.28900146 3.2100029zm11.61199952 11.61199951c0 1.76599884-1.02600098 3.20899963-2.28900147 3.20899963s-2.28799438-1.44300079-2.28799438-3.20899963c0-1.76599884 1.0249939-3.20999908 2.28799438-3.20999908 1.26300049 0 2.28900147 1.44400024 2.28900147 3.20999908zm5.88600158 5.88599777c0 1.77600098-1.0249939 3.210001-2.28799438 3.210001-1.2630005 0-2.28800965-1.43400002-2.28800965-3.210001 0-1.76599884 1.02500916-3.20899963 2.28800965-3.20899963 1.26300049 0 2.28799438 1.4430008 2.28799438 3.20899963zm-.59799194-38.09299469c0 1.76599884-1.02500916 3.20999909-2.28800964 3.20999909-1.2630005 0-2.28799439-1.44400025-2.28799439-3.20999909 0-1.76600647 1.0249939-3.20900726 2.28799439-3.20900726 1.26300048 0 2.28800964 1.4430008 2.28800964 3.20900726zm5.83000183 5.83999634c0 1.76599884-1.02500916 3.20899963-2.28800964 3.20899963-1.25299073 0-2.28900147-1.44300079-2.28900147-3.20899963 0-1.77600098 1.03601074-3.20999908 2.28900147-3.20999908 1.26300048 0 2.28800964 1.4339981 2.28800964 3.20999908zm5.76300049 5.75299835c0 1.76600266-1.02500916 3.2100029-2.28800965 3.2100029-1.26300048 0-2.28799438-1.44400024-2.28799438-3.2100029 0-1.76599884 1.0249939-3.20899963 2.28799438-3.20899963 1.2630005 0 2.28800965 1.4430008 2.28800965 3.20899963zm5.83999634 5.84000015c0 1.76600266-1.03600312 3.20900345-2.28900147 3.20900345-1.26300049 0-2.28800201-1.44300079-2.28800201-3.20900345 0-1.76599884 1.02500152-3.20899963 2.28800201-3.20899963 1.25299835 0 2.28900147 1.4430008 2.28900147 3.20899963zm5.77199554 5.77300263c0 1.76599884-1.02500153 3.20899963-2.28800201 3.20899963-1.2630005 0-2.28799439-1.4430008-2.28799439-3.20899963 0-1.76600266 1.0249939-3.2100029 2.28799439-3.2100029 1.26300048 0 2.28800201 1.44400024 2.28800201 3.2100029zm-16.31200409-28.48500443c0 1.76600647-1.0249939 3.20899964-2.27799988 3.20899964-1.26300049 0-2.28900146-1.44299317-2.28900146-3.20899964 0-1.76599884 1.02600097-3.20899963 2.28900146-3.20899963 1.25300598 0 2.27799988 1.4430008 2.27799988 3.20899963zm5.84000397 5.84000397c0 1.76599884-1.02599335 3.20899964-2.28899384 3.20899964-1.26300049 0-2.28800964-1.4430008-2.28800964-3.20899964 0-1.77600098 1.02500915-3.20999908 2.28800964-3.20999908 1.2630005 0 2.28899384 1.4339981 2.28899384 3.20999908zm5.76300049 5.75299835c0 1.77600098-1.02500153 3.2100029-2.28800202 3.2100029s-2.28799438-1.43400192-2.28799438-3.2100029c0-1.76599884 1.0249939-3.20899963 2.28799438-3.20899963 1.2630005 0 2.28800202 1.4430008 2.28800202 3.20899963zm5.8580017 5.86800003c0 1.76600266-1.02500152 3.20899964-2.288002 3.20899964-1.2630005 0-2.28800202-1.44299698-2.28800202-3.20899964 0-1.77599716 1.02500152-3.20899963 2.28800201-3.20899963s2.28800202 1.43300247 2.28800202 3.20899963z"/>
        </g>
        <path fill="#90002F" d="M276.95900726 296.25099182c-.5699997 9.9980011-7.34000396 19.70899964-22.73099518 19.08399964-14.73600769-.59799958-20.76499938-10.80500031-20.76499938-20.87900162 0-3.0949974 4.6100006-10.31200028 4.6100006-10.31200028-2.25100707 5.8010025 1.48098755 17.85800171 17.14498902 17.83000183 15.99100494-.02899932 19.33900452-11.26399993 17.7780075-16.88499832 3.17799378 1.93399811 4.15999604 7.70599747 3.96299744 11.16199875z" opacity=".4"/>
        <path fill="#F1F1F1" d="M276.95900726 296.24798965c-.01000213.09500123-.01000213.19000245-.01899719.28499985-1.07300568-13.27399826-14.1760025-29.80400085-21.76200104-29.80400085-6.88400268 0-20.50900268 16.33100128-21.63900757 29.60500335-.05699157-.6269989-.07598876-1.25300216-.07598876-1.88000106.0099945-16.45399857 14.5269928-36.68799973 21.71499633-36.68799973 8.16600037 0 22.72999573 21.81900025 21.78099823 38.48199844z" opacity=".4"/>
        <path fill="none" stroke="#9A0039" stroke-miterlimit="10" stroke-width="8" d="M255.17700195 257.76998901c-7.18899536 0-22.65899658 20.22800446-22.66400146 36.68600083-.00299072 10.07400131 6.97601318 20.27900123 21.71400451 20.87600136 15.39300538.62400054 23.11000062-9.07999993 23.68099976-19.07999993.95200348-16.66699981-14.56799316-38.48200226-22.7310028-38.48200226z"/>
      </g>
    </g>
    <g clip-path="url(#ab)" style="display:block" transform="matrix(.99992 0 0 1.00009 -.10722713 -.17138499)">
      <g style="display:block">
        <path fill="#929EB0" d="M163.2159054 261.84480054c-.00659638 7.0498985-12.07249859 12.75449952-26.95000898 12.74019898-14.8774936-.01430053-26.93239347-5.74089997-26.9257971-12.79080056.00659638-7.04990059 12.07250698-12.75450162 26.9500006-12.74020108 14.877502.01430054 26.93240185 5.74090207 26.92580548 12.79080266z" opacity=".3"/>
        <path fill="#BF113A" d="M135.8303007 209.46830175c-7.15879531 0-21.61610154 20.14209715-21.62159012 36.5298962-.00330658 10.03199904 6.00048536 20.19380022 20.67558944 20.78890063 15.32740664.6215006 22.06710558-9.04199944 22.6358037-19.0003012.9481995-16.59679754-13.56189451-38.31849563-21.68980301-38.31849563z"/>
        <g opacity=".6">
          <path fill="#FF0057" d="M130.54809844 236.08829897c0 1.76769833-1.02190096 3.19549873-2.2791901 3.19549873-1.25730594 0-2.27809912-1.4278004-2.27809912-3.19549873 0-1.75889896 1.02079318-3.19549872 2.27809911-3.19549872 1.25728915 0 2.27919011 1.43659976 2.27919011 3.19549872zm5.72989973 5.73869909c0 1.75889896-1.02190097 3.19660232-2.27919012 3.19660232-1.25730593 0-2.2780991-1.43770336-2.2780991-3.19660232 0-1.76769833 1.02079317-3.19549873 2.2780991-3.19549873 1.25728915 0 2.27919012 1.4278004 2.27919012 3.19549873zm-11.47849757-11.48730112c0 1.75890316-1.02958834 3.19550292-2.2780991 3.19550292-1.25728916 0-2.27919012-1.43659976-2.27919012-3.19550292 0-1.75889897 1.02190096-3.19549453 2.27919011-3.19549453 1.24851077 0 2.27809911 1.43659556 2.27809911 3.19549453zm3.98969888 16.3944038c0 1.75889897-1.02958834 3.19549874-2.2780991 3.19549874-1.25728916 0-2.27919012-1.43659977-2.27919012-3.19549873 0-1.76770252 1.02190096-3.19550292 2.27919011-3.19550292 1.24851077 0 2.27809911 1.4278004 2.27809911 3.19550292zm-5.757393-5.74860203c0 1.75889896-1.02190097 3.18669937-2.2792069 3.18669937-1.24849399 0-2.27809911-1.4278004-2.27809911-3.18669937 0-1.76769833 1.02960512-3.19549873 2.2780991-3.19549873 1.25730594 0 2.2792069 1.4278004 2.2792069 3.19549873zm19.06080363 6.64729934c0 1.76770252-1.02190096 3.19549873-2.2792069 3.19549873-1.25730593 0-2.2780991-1.4277962-2.2780991-3.19549873 0-1.75889896 1.02079317-3.19549873 2.2780991-3.19549873 1.25730594 0 2.2792069 1.43659977 2.2792069 3.19549873zm5.72879193 5.73869908c0 1.75890316-1.02079317 3.19550293-2.2780991 3.19550293-1.248494 0-2.27919012-1.43659977-2.27919012-3.19550293 0-1.75889896 1.03069613-3.19549872 2.27919011-3.19549872 1.25730594 0 2.27809911 1.43659976 2.27809911 3.19549872zm-13.22640257-.83159639c0 1.76769833-1.02190096 3.19549873-2.27919011 3.19549873-1.25730594 0-2.27809911-1.4278004-2.27809911-3.19549873 0-1.75890316 1.02079317-3.19660232 2.2780991-3.19660232 1.25728916 0 2.27919012 1.43769916 2.27919012 3.19660232zm5.8707063 5.87069791c0 1.75889897-1.02960512 3.19549873-2.2780991 3.19549873-1.25730594 0-2.2792069-1.43659976-2.2792069-3.19549873 0-1.76769832 1.02190096-3.19549872 2.2792069-3.19549872 1.24849398 0 2.2780991 1.4278004 2.2780991 3.19549872zm-19.31599773-6.95860038c0 1.76770252-1.02080996 3.19549872-2.2780991 3.19549872-1.25730594 0-2.27809912-1.4277962-2.27809912-3.19549872 0-1.75889897 1.02079318-3.19549873 2.27809911-3.19549873 1.25728915 0 2.27809911 1.43659976 2.27809911 3.19549873zm-5.74750684-5.74859785c0 1.75889897-1.02190096 3.19549873-2.2791901 3.19549873-1.25730594 0-2.27809912-1.43659976-2.27809912-3.19549873 0-1.75890316 1.02079318-3.19550292 2.27809911-3.19550292 1.25728915 0 2.27919011 1.43659976 2.27919011 3.19550292zm11.56320979 11.5631972c0 1.75890316-1.02190096 3.19550292-2.2792069 3.19550292-1.25730593 0-2.2780991-1.43659976-2.2780991-3.19550292 0-1.75889896 1.02079317-3.19549873 2.2780991-3.19549873 1.25730594 0 2.2792069 1.43659977 2.2792069 3.19549873zm5.86078656 5.86190275c0 1.76769832-1.02079317 3.19549872-2.2780991 3.19549872-1.25728916 0-2.27919012-1.4278004-2.27919012-3.19549872 0-1.75890316 1.02190096-3.19550293 2.27919011-3.19550293 1.25730594 0 2.27809911 1.43659977 2.27809911 3.19550293zm-.59510041-37.9313027c0 1.75889896-1.02190096 3.19549872-2.27919011 3.19549872-1.25730594 0-2.27809911-1.43659976-2.27809911-3.19549873 0-1.75889896 1.02079317-3.19659812 2.2780991-3.19659812 1.25728916 0 2.27919012 1.43769916 2.27919012 3.19659812zm5.80470899 5.81349995c0 1.75889897-1.02080996 3.19660232-2.27809911 3.19660232-1.24851077 0-2.2792069-1.43770335-2.2792069-3.19660232 0-1.76769832 1.03069613-3.19550292 2.2792069-3.19550292 1.25728915 0 2.2780991 1.4278046 2.2780991 3.19550292zm5.73980267 5.72989972c0 1.75890316-1.02190096 3.19550293-2.2792069 3.19550293-1.25728915 0-2.2780991-1.43659977-2.2780991-3.19550293 0-1.75889896 1.02080995-3.19549872 2.2780991-3.19549872 1.25730594 0 2.2792069 1.43659976 2.2792069 3.19549872zm5.81459516 5.81459936c0 1.75890316-1.03069613 3.19550292-2.2791985 3.19550292-1.25729755 0-2.27809911-1.43659976-2.27809911-3.19550292 0-1.75889897 1.02080156-3.19549873 2.2780991-3.19549873 1.24850238 0 2.27919851 1.43659976 2.27919851 3.19549873zm5.74749845 5.74860204c0 1.75889896-1.02080157 3.19549872-2.27809911 3.19549872-1.25729755 0-2.27809911-1.43659976-2.27809911-3.19549872 0-1.75889897 1.02080156-3.19549873 2.2780991-3.19549873 1.25729755 0 2.27809912 1.43659976 2.27809912 3.19549873zm-16.24259908-28.36350045c0 1.75889896-1.02079317 3.19549872-2.26930394 3.19549872-1.25728915 0-2.27809911-1.43659976-2.27809911-3.19549872 0-1.75889897 1.02080996-3.19659812 2.2780991-3.19659812 1.24851078 0 2.26930395 1.43769915 2.26930395 3.19659812zm5.81460355 5.81460355c0 1.75889896-1.02080157 3.19549453-2.2781075 3.19549453-1.25728915 0-2.27919012-1.43659557-2.27919012-3.19549453 0-1.76770252 1.02190097-3.19660652 2.27919012-3.19660652 1.25730593 0 2.2781075 1.428904 2.2781075 3.19660652zm5.73869489 5.72879613c0 1.76770252-1.02079318 3.19549872-2.27809911 3.19549872-1.25729755 0-2.27809911-1.4277962-2.27809911-3.19549872 0-1.75889897 1.02080156-3.19549873 2.2780991-3.19549873 1.25730594 0 2.27809912 1.43659976 2.27809912 3.19549873zm5.83440106 5.84320043c0 1.75889896-1.02190096 3.19549872-2.2791985 3.19549872-1.25729754 0-2.27809911-1.43659976-2.27809911-3.19549872 0-1.76769833 1.02080157-3.19549873 2.2780991-3.19549873 1.25729755 0 2.27919851 1.4278004 2.27919851 3.19549873z"/>
        </g>
        <path fill="#90002F" d="M157.52010373 247.78569799c-.56759874 9.95610296-7.30949647 19.62730087-22.63469593 19.00470088-14.67399629-.59619981-20.67669722-10.76020188-20.67669722-20.79110153 0-3.08219802 4.59028788-10.26849921 4.59028788-10.26849921-2.24179387 5.77719891 1.47401279 17.78370018 17.07200507 17.7550991 15.92359806-.02859687 19.25770458-11.21779809 17.70340233-16.81459959 3.16469886 1.92609944 4.14149942 7.67250269 3.94569787 11.11440035z" opacity=".4"/>
        <path fill="#F1F1F1" d="M157.52010373 247.7834992c-.00990296.09459838-.00990296.18920097-.01869812.28379936-1.06810076-13.217599-14.11520111-29.67800433-21.66999711-29.67800433-6.85521103 0-20.42150313 16.26240498-21.54679765 29.480004-.05720215-.6237015-.07590027-1.24849819-.07590027-1.87219968.00988617-16.38450086 14.4649936-36.53320277 21.62269792-36.53320277 8.1311983 0 22.63359652 21.72610406 21.68869523 38.31960341z" opacity=".4"/>
        <path fill="none" stroke="#9A0039" stroke-miterlimit="10" stroke-width="8.8" d="M135.8303007 209.46830175c-7.15879531 0-22.56210223 20.14209715-22.56759081 36.5298962-.00330658 10.03199904 6.94648605 20.19380022 21.62159013 20.78890063 15.32740664.6215006 23.01310627-9.04199944 23.5818044-19.0003012.94819948-16.59679754-14.50789521-38.31849563-22.63580371-38.31849563z"/>
      </g>
    </g>
  </g>
</svg>