<svg xmlns="http://www.w3.org/2000/svg" xmlns:xlink="http://www.w3.org/1999/xlink" style="width:100%;height:100%;transform:translate3d(0,0,0);content-visibility:visible" viewBox="0 0 512 512">
  <defs>
    <path id="reuse-0" d="M0 0h512v512H0z"/>
  </defs>
  <defs>
    <linearGradient id="Q" x1="-48.56800079" x2="44.25500107" y1="83.13500214" y2="-62.59899902" gradientUnits="userSpaceOnUse" spreadMethod="pad">
      <stop offset="0%" stop-color="#FFC800"/>
      <stop offset="25%" stop-color="#FFD212"/>
      <stop offset="50%" stop-color="#FFDD24"/>
      <stop offset="75%" stop-color="#FFE836"/>
      <stop offset="100%" stop-color="#FFF248"/>
    </linearGradient>
    <linearGradient id="y" x1="-241.2480011" x2="132.72000122" y1=".27700001" y2="-2.66000009" gradientUnits="userSpaceOnUse" spreadMethod="pad">
      <stop offset="0%" stop-color="#00B61F"/>
      <stop offset="50%" stop-color="#2EB610"/>
      <stop offset="100%" stop-color="#5CB600"/>
    </linearGradient>
    <linearGradient id="J" gradientUnits="userSpaceOnUse" spreadMethod="pad">
      <stop/>
      <stop/>
    </linearGradient>
    <linearGradient id="P" gradientUnits="userSpaceOnUse" spreadMethod="pad">
      <stop/>
      <stop/>
    </linearGradient>
    <linearGradient id="O" gradientUnits="userSpaceOnUse" spreadMethod="pad">
      <stop/>
      <stop/>
    </linearGradient>
    <linearGradient id="N" gradientUnits="userSpaceOnUse" spreadMethod="pad">
      <stop/>
      <stop/>
    </linearGradient>
    <linearGradient id="M" gradientUnits="userSpaceOnUse" spreadMethod="pad">
      <stop/>
      <stop/>
    </linearGradient>
    <linearGradient id="L" gradientUnits="userSpaceOnUse" spreadMethod="pad">
      <stop/>
      <stop/>
    </linearGradient>
    <linearGradient id="K" gradientUnits="userSpaceOnUse" spreadMethod="pad">
      <stop/>
      <stop/>
    </linearGradient>
    <linearGradient id="H" x1="-27.54199982" x2="37.05500031" y1="40.74300003" y2="-41.12400055" gradientUnits="userSpaceOnUse" spreadMethod="pad">
      <stop offset="0%" stop-color="#B7F04A"/>
      <stop offset="50%" stop-color="#B7F04A"/>
      <stop offset="100%" stop-color="#B7F04A"/>
    </linearGradient>
    <linearGradient id="I" x1="88.20800018" x2="-72.69499969" y1="20.99300003" y2="-44.87400055" gradientUnits="userSpaceOnUse" spreadMethod="pad">
      <stop offset="0%" stop-color="#B7F04A"/>
      <stop offset="50%" stop-color="#B7F04A"/>
      <stop offset="100%" stop-color="#B7F04A"/>
    </linearGradient>
    <linearGradient id="D" x1="12.90499973" x2="1.76199996" y1="54.43999863" y2="-20.23999977" gradientUnits="userSpaceOnUse" spreadMethod="pad">
      <stop offset="0%" stop-color="#FFEC33"/>
      <stop offset="50%" stop-color="#FDD11A"/>
      <stop offset="100%" stop-color="#FBB500"/>
    </linearGradient>
    <linearGradient id="E" x1="3.08899999" x2="-3.17600012" y1="-59.40399933" y2="60.13199997" gradientUnits="userSpaceOnUse" spreadMethod="pad">
      <stop offset="0%" stop-color="#FFD119"/>
      <stop offset="40%" stop-color="#F5A40C"/>
      <stop offset="80%" stop-color="#EA7800"/>
    </linearGradient>
    <linearGradient id="F" x1="-8.2329998" x2="8.23700047" y1="6.07200003" y2="-6.37599993" gradientUnits="userSpaceOnUse" spreadMethod="pad">
      <stop offset="0%" stop-color="#FFD119"/>
      <stop offset="50%" stop-color="#FFE764"/>
      <stop offset="100%" stop-color="#FFFDAF"/>
    </linearGradient>
    <linearGradient id="G" x1="-3783.58300781" x2="-3830.86303711" y1="2758.54003906" y2="2636.99511719" gradientUnits="userSpaceOnUse" spreadMethod="pad">
      <stop offset="0%" stop-color="#FFD119"/>
      <stop offset="40%" stop-color="#F5A40C"/>
      <stop offset="80%" stop-color="#EA7800"/>
    </linearGradient>
    <linearGradient id="z" x1="5.9000001" x2="-3.22799993" y1="-47.86399841" y2="-11.93000031" gradientUnits="userSpaceOnUse" spreadMethod="pad">
      <stop offset="0%" stop-color="#FFEC33"/>
      <stop offset="50%" stop-color="#FDC81A"/>
      <stop offset="100%" stop-color="#FBA400"/>
    </linearGradient>
    <linearGradient id="A" x1="-27.30400085" x2="27.45000076" y1="-17.2159996" y2="16.99799919" gradientUnits="userSpaceOnUse" spreadMethod="pad">
      <stop offset="0%" stop-color="#FFD119"/>
      <stop offset="40%" stop-color="#F5A40C"/>
      <stop offset="80%" stop-color="#EA7800"/>
    </linearGradient>
    <linearGradient id="B" x1="-2.68600011" x2="7.84700012" y1="-8.85999966" y2="24.84499931" gradientUnits="userSpaceOnUse" spreadMethod="pad">
      <stop offset="0%" stop-color="#F0B300"/>
      <stop offset="50%" stop-color="#F8D857"/>
      <stop offset="100%" stop-color="#FFFDAF"/>
    </linearGradient>
    <linearGradient id="C" x1="-7217.53417969" x2="-7227.71582031" y1="-3043.81201172" y2="-2956.09008789" gradientUnits="userSpaceOnUse" spreadMethod="pad">
      <stop offset="0%" stop-color="#FFD119"/>
      <stop offset="14%" stop-color="#FABA13"/>
      <stop offset="27%" stop-color="#F5A40C"/>
      <stop offset="41%" stop-color="#EF8E06"/>
      <stop offset="54%" stop-color="#EA7800"/>
    </linearGradient>
    <linearGradient id="x" x1="-3.4519999" x2="1.27199996" y1="-50.44900131" y2="20.93099976" gradientUnits="userSpaceOnUse" spreadMethod="pad">
      <stop offset="0%" stop-color="#009B24"/>
      <stop offset="50%" stop-color="#3BA112"/>
      <stop offset="100%" stop-color="#77A800"/>
    </linearGradient>
    <linearGradient id="v" gradientUnits="userSpaceOnUse" spreadMethod="pad">
      <stop/>
      <stop/>
      <stop/>
      <stop/>
      <stop/>
    </linearGradient>
    <linearGradient id="d" gradientUnits="userSpaceOnUse" spreadMethod="pad">
      <stop/>
      <stop/>
      <stop/>
    </linearGradient>
    <linearGradient id="o" gradientUnits="userSpaceOnUse" spreadMethod="pad">
      <stop/>
      <stop/>
    </linearGradient>
    <linearGradient id="u" gradientUnits="userSpaceOnUse" spreadMethod="pad">
      <stop/>
      <stop/>
    </linearGradient>
    <linearGradient id="t" gradientUnits="userSpaceOnUse" spreadMethod="pad">
      <stop/>
      <stop/>
    </linearGradient>
    <linearGradient id="s" gradientUnits="userSpaceOnUse" spreadMethod="pad">
      <stop/>
      <stop/>
    </linearGradient>
    <linearGradient id="r" gradientUnits="userSpaceOnUse" spreadMethod="pad">
      <stop/>
      <stop/>
    </linearGradient>
    <linearGradient id="q" gradientUnits="userSpaceOnUse" spreadMethod="pad">
      <stop/>
      <stop/>
    </linearGradient>
    <linearGradient id="p" gradientUnits="userSpaceOnUse" spreadMethod="pad">
      <stop/>
      <stop/>
    </linearGradient>
    <linearGradient id="m" gradientUnits="userSpaceOnUse" spreadMethod="pad">
      <stop/>
      <stop/>
      <stop/>
    </linearGradient>
    <linearGradient id="n" gradientUnits="userSpaceOnUse" spreadMethod="pad">
      <stop/>
      <stop/>
      <stop/>
    </linearGradient>
    <linearGradient id="i" gradientUnits="userSpaceOnUse" spreadMethod="pad">
      <stop/>
      <stop/>
      <stop/>
    </linearGradient>
    <linearGradient id="j" gradientUnits="userSpaceOnUse" spreadMethod="pad">
      <stop/>
      <stop/>
      <stop/>
    </linearGradient>
    <linearGradient id="k" gradientUnits="userSpaceOnUse" spreadMethod="pad">
      <stop/>
      <stop/>
      <stop/>
    </linearGradient>
    <linearGradient id="l" gradientUnits="userSpaceOnUse" spreadMethod="pad">
      <stop/>
      <stop/>
      <stop/>
    </linearGradient>
    <linearGradient id="e" gradientUnits="userSpaceOnUse" spreadMethod="pad">
      <stop/>
      <stop/>
      <stop/>
    </linearGradient>
    <linearGradient id="f" gradientUnits="userSpaceOnUse" spreadMethod="pad">
      <stop/>
      <stop/>
      <stop/>
    </linearGradient>
    <linearGradient id="g" gradientUnits="userSpaceOnUse" spreadMethod="pad">
      <stop/>
      <stop/>
      <stop/>
    </linearGradient>
    <linearGradient id="h" gradientUnits="userSpaceOnUse" spreadMethod="pad">
      <stop/>
      <stop/>
      <stop/>
      <stop/>
      <stop/>
    </linearGradient>
    <linearGradient id="c" gradientUnits="userSpaceOnUse" spreadMethod="pad">
      <stop/>
      <stop/>
      <stop/>
    </linearGradient>
    <clipPath id="a">
      <use xlink:href="#reuse-0"/>
    </clipPath>
    <clipPath id="w">
      <use xlink:href="#reuse-0"/>
    </clipPath>
    <clipPath id="b">
      <use xlink:href="#reuse-0"/>
    </clipPath>
  </defs>
  <g clip-path="url(#a)">
    <g clip-path="url(#w)" style="display:block">
      <g style="display:block">
        <path fill="#B7F04A" d="M115.7069931 308.72101974s-10.54899978-5.38100051-19.9449997-4.28499984c-10.94300079 1.27700042-18.2389984 4.55999756-20.7919998 1.64199829-2.96900178-3.394001 54.27000045-31.45299912 71.13100051-39.21299929 21.92699957-10.09200006 46.1040001-18.36400038 52.46699905-20.42799955 4.49900055-1.45899964 17.96500016-3.46500015 30.27600098-2.18799973 9.3160019.9659996 26.33300018 6.6609993 26.33300018 6.6609993s-46.37200164 12.95300007-76.42900085 24.70899963c-31.63099957 12.37199975-57.76399994 30.00099946-63.04100037 33.1020012z"/>
        <path fill="none" stroke="#5CC61B" stroke-width="5" d="M115.7069931 308.72101974s-10.54899978-5.38100051-19.9449997-4.28499984c-10.94300079 1.27700042-18.2389984 4.55999756-20.7919998 1.64199829-2.96900178-3.394001 54.27000045-31.45299912 71.13100051-39.21299929 21.92699957-10.09200006 46.1040001-18.36400038 52.46699905-20.42799955 4.49900055-1.45899964 17.96500016-3.46500015 30.27600098-2.18799973 9.3160019.9659996 26.33300018 6.6609993 26.33300018 6.6609993s-46.37200164 12.95300007-76.42900085 24.70899963c-31.63099957 12.37199975-57.76399994 30.00099946-63.04100037 33.1020012z"/>
        <path fill="#B7F04A" d="M401.54499435 308.72200775s11.01000214-2.69400024 20.69099808-2.27900314c12.76700592.54700088 20.17900086 3.32400131 22.43400574 1.76300049 1.58100128-1.09399796-54.6190033-30.27599907-72.95500183-39.27399922-22.11200047-10.85099983-48.58599854-20.33599949-55.07500077-22.49499988-3.65499877-1.2159996-17.30299758-2.3710003-29.91800308-1.09399987-9.54599762.9659996-29.36399841 5.47200013-29.36399841 5.47200013s46.34100342 10.51699972 76.78500175 23.16299963c35.56599999 14.77299928 61.99500084 31.64300012 67.40199852 34.74400186z"/>
        <path fill="none" stroke="#5CC61B" stroke-width="5" d="M401.54499435 308.72200775s11.01000214-2.69400024 20.69099808-2.27900314c12.76700592.54700088 20.17900086 3.32400131 22.43400574 1.76300049 1.58100128-1.09399796-54.6190033-30.27599907-72.95500183-39.27399922-22.11200047-10.85099983-48.58599854-20.33599949-55.07500077-22.49499988-3.65499877-1.2159996-17.30299758-2.3710003-29.91800308-1.09399987-9.54599762.9659996-29.36399841 5.47200013-29.36399841 5.47200013s46.34100342 10.51699972 76.78500175 23.16299963c35.56599999 14.77299928 61.99500084 31.64300012 67.40199852 34.74400186z"/>
        <path fill="url(#x)" d="M-1.47099996 85.2009964c-17.68800044-.7559967-102.91100382-38.1459961-130.00200724-52.61899567 0 0-14.82798767-10.36500168-12.56399536-23.8560009C-141.45899963-6.63600016-14.41499996-51.17300034-3.72199988-50.9850006c42.36600089.74399948 145.6900022 46.51900053 147.40800452 59.71100044 1.84899902 14.20100022-4.62001038 16.8050003-4.62001038 16.8050003C108.86100006 51.60900117 36.47299957 86.82299806-1.47099996 85.2009964z" transform="translate(258.89898682 301.89498901)"/>
        <path fill="none" stroke="#0B8B00" stroke-miterlimit="10" stroke-width="5.001" d="M257.42798686 387.09598541c-17.68800044-.7559967-102.91100383-38.1459961-130.00200725-52.61899566 0 0-14.82798767-10.36500168-12.56399536-23.8560009 2.57800293-15.362 129.6220026-59.89900017 140.31500268-59.71100045 42.3660009.74399948 145.6900022 46.51900053 147.40800453 59.71100045 1.84899902 14.2010002-4.62001038 16.8050003-4.62001038 16.8050003-30.2049942 26.07800102-102.5929947 61.29199791-140.53699422 59.66999626z"/>
        <path fill="#01860C" d="M254.92198777 256.72200203c-1.49300003 25.57700014.41400004 79.88400078.20900011 101.039999-.03200006 3.33599854 4.31499982 3.2460022 4.46499992.14299775.58899998-12.17299652 1.40700006-87.24599648.25699997-100.88899612-.53499997-6.34400177-4.635-5.36199952-4.931-.29400063z" opacity=".9"/>
      </g>
      <g style="display:block">
        <path fill="#FFC119" d="M127.2460022 369.12498665s44.7069931-17.86299992 71.69999695-27.43799997c24.88399887-8.82700037 48.9929986-21.43799948 63.43699884-16.79300093 15.36799955-7.01999855 22.74299955 9.66900062 61.68099737 19.16400082 10.58499909 2.58100002 38.66600037 18.23899906 46.32600403 22.61599986 7.65999603 4.37700081-63.71600342 7.20000077-112.96100163 12.67199898-49.24499965 5.47200012-120.60799861 9.20300293-130.18299556-10.22099876z"/>
        <path fill="none" stroke="#DB7D0A" stroke-miterlimit="10" stroke-width="4" d="M127.2460022 369.12498665s44.7069931-17.86299992 71.69999695-27.43799997c24.88399887-8.82700037 48.9929986-21.43799948 63.43699884-16.79300093 15.36799955-7.01999855 22.74299955 9.66900062 61.68099737 19.16400082 10.58499909 2.58100002 38.66600037 18.23899906 46.32600403 22.61599986 7.65999603 4.37700081-63.71600342 7.20000077-112.96100163 12.67199898-49.24499965 5.47200012-120.60799861 9.20300293-130.18299556-10.22099876z"/>
        <path fill="#FFDE39" d="M180.25099945 357.10800552c8.49900055-3.29599952 30.25699616-11.18900013 35.58899689-14.5890007 14.53499985-9.26899957 38.58400023-19.63499975 46.90400028-14.2969997 16.50599957 10.58999992 70.38100338 20.9030006 95.16999722 39.74700046.34899902.2649994 10.37800598-.43299865 7.00400543-2.34400177-31.23000336-17.68799781-99.8550024-42.74999856-109.0340027-42.5179987-9.17800006.23199988-46.38400038 17.76799966-58.98800048 21.8870001-11.22999572 3.67000007-65.69799804 25.65799903-65.69799804 25.65799903s40.55400085-10.24799919 49.0530014-13.54399872z"/>
        <path fill="#FFF36C" d="M280.75399685 333.06198883c1.78900051 4.82499886 14.50500011 1.40199947 12.67400026-3.69799995-1.83100003-5.10000039-14.46299982-1.12700034-12.67400026 3.69799995z"/>
        <path fill="none" stroke="#FF9F00" stroke-miterlimit="10" stroke-width="2.5" d="M280.75399685 333.06198883c1.78900051 4.82499886 14.50500011 1.40199947 12.67400026-3.69799995-1.83100003-5.10000039-14.46299982-1.12700034-12.67400026 3.69799995z"/>
        <path fill="#FFF36C" d="M203.17399406 338.74799728c-2.31199932 4.55599976 11.67700029 8.835001 13.44400025 4.40999985 1.7670002-4.42499924-11.13199997-8.9659996-13.44400025-4.40999985z"/>
        <path fill="none" stroke="#FF9F00" stroke-miterlimit="10" stroke-width="2.5" d="M203.17399406 338.74799728c-2.31199932 4.55599976 11.67700029 8.835001 13.44400025 4.40999985 1.7670002-4.42499924-11.13199997-8.9659996-13.44400025-4.40999985z"/>
        <path fill="#FFDE39" d="M299.5350113 338.99600315c-4.55599976-5.7920003-21.98600007-7.09400022-26.0880003 1.96799946-.82299996 1.8180008 6.14400005-.85899925 11.11200022-1.59399986 5.87800002-.86999989 16.39299989 1.42700004 14.97600007-.3739996zM263.80399323 353.48100853c7.05000305-7.62 20.4489975-3.86500001 23.08300018 1.16900015.83300018 1.59199953-8.07299805-.717-11.04799652-1.1090002-2.9750061-.39199973-14.45400238 2.55400037-12.03500366-.05999995z"/>
        <path fill="#FFCC39" d="M234.70999813 354.05399704c-11.27199984 5.69599915-23.33400059-13.99200058-11.87099981-21.25900042 11.079-7.02300012 23.12599993 15.57200015 11.87099981 21.25900042z"/>
        <path fill="none" stroke="#FF9F00" stroke-miterlimit="10" stroke-width="2.5" d="M234.70999813 354.05399704c-11.27199984 5.69599915-23.33400059-13.99200058-11.87099981-21.25900042 11.079-7.02300012 23.12599993 15.57200015 11.87099981 21.25900042z"/>
        <path fill="#FFF36C" d="M238.68199396 351.41799927c-9.60699987 5.9280014-23.61100054-15.84999943-11.87099981-21.25799942 11.73999977-5.408 21.47799969 15.32999992 11.87099981 21.25799942z"/>
        <path fill="none" stroke="#FF9F00" stroke-miterlimit="10" stroke-width="2.5" d="M238.68199396 351.41799927c-9.60699987 5.9280014-23.61100054-15.84999943-11.87099981-21.25799942 11.73999977-5.408 21.47799969 15.32999992 11.87099981 21.25799942z"/>
        <path fill="#FFC147" d="M227.20000362 345.21798801c-.37900018-.4090004 5.98099977-12.54100024 6.65599978-12.62500023.54400003-.06699998 6.7430004 12.98699975 6.27300012 13.44699978-.47000026.46000004-5.70100009-1.2539997-5.77800011-1.81900024-.20000005-1.4649992-.681-6.55799961-.681-6.55799961s-1.40599998 5.5550003-1.83499997 6.54399967c-.24900002.5720005-4.17800004 1.50500012-4.63499982 1.01100063z"/>
        <path fill="#F58A00" d="M268.2290039 340.3240118c2.8210001-2.59500026-27.6800003-12.17600008-24.69799995-3.41800022.96899986 2.84399986 22.46799946 5.46899986 24.69799996 3.41800022z"/>
        <path fill="#FFCC39" d="M271.59999943 334.23898506c-6.27700043 9.94000054-28.24800015-.74300003-21.84000015-10.63699984 3.50899982-5.41800023 25.67299938 4.56599974 21.84000015 10.63699984z"/>
        <path fill="none" stroke="#FF9F00" stroke-miterlimit="10" stroke-width="2.5" d="M271.59999943 334.23898506c-6.27700043 9.94000054-28.24800015-.74300003-21.84000015-10.63699984 3.50899982-5.41800023 25.67299938 4.56599974 21.84000015 10.63699984z"/>
        <path fill="#FFF36C" d="M272.20000648 332.01999283c-4.05200052 7.65299988-25.79699993-3.06599999-21.092-10.53399968 4.70499944-7.46800018 25.14400005 2.8809998 21.092 10.53399968z"/>
        <path fill="none" stroke="#FF9F00" stroke-miterlimit="10" stroke-width="2.5" d="M272.20000648 332.01999283c-4.05200052 7.65299988-25.79699993-3.06599999-21.092-10.53399968 4.70499944-7.46800018 25.14400005 2.8809998 21.092 10.53399968z"/>
        <path fill="#F8B332" d="M260.70599413 331.17101383c-.50600004-.16100025-3.79300022-9.81499982-3.39499998-10.05699992.3210001-.19499993 12.54500007 6.57799983 12.5170002 7.00699973-.02800036.4289999-4.57500017.76500034-4.97700018.41900063-1.04200003-.89700032-4.52000004-4.07600022-4.52000004-4.07600022s2.50800002 4.00199986 2.83500004 4.76399994c.18899995.44099999-1.84899998 2.13700009-2.46000004 1.94299984z"/>
        <path fill="#FFCC39" d="M190.36700058 343.753999c8.1949997 8.49600005-10.61800003 23.43400073-18.23099995 16.05699992-4.63599968-4.49199963 13.24699974-21.2249999 18.23099995-16.05699993z"/>
        <path fill="none" stroke="#FF9F00" stroke-miterlimit="10" stroke-width="2.5" d="M190.36700058 343.753999c8.1949997 8.49600005-10.61800003 23.43400073-18.23099995 16.05699992-4.63599968-4.49199963 13.24699974-21.2249999 18.23099995-16.05699993z"/>
        <path fill="#FFF36C" d="M188.55099297 342.34599167c5.67099952 5.14100021-12.57399993 20.26299995-17.84700013 15.40500015-7.11800003-6.55800056 10.73100043-21.85599995 17.84700013-15.40500015z"/>
        <path fill="none" stroke="#FF9F00" stroke-miterlimit="10" stroke-width="2.5" d="M188.55099297 342.34599167c5.67099952 5.14100021-12.57399993 20.26299995-17.84700013 15.40500015-7.11800003-6.55800056 10.73100043-21.85599995 17.84700013-15.40500015z"/>
        <path fill="#FFCC39" d="M296.80299187 354.74300194c-7.18400002-13.46900022 11.6599996-23.70600033 20.81499958-15.33900023 11.13499927 10.17499972-14.38099957 27.4029994-20.81499958 15.33900023z"/>
        <path fill="none" stroke="#FF9F00" stroke-miterlimit="10" stroke-width="2.5" d="M296.80299187 354.74300194c-7.18400002-13.46900022 11.6599996-23.70600033 20.81499958-15.33900023 11.13499927 10.17499972-14.38099957 27.4029994-20.81499958 15.33900023z"/>
        <path fill="#FFF36C" d="M300.39801502 356.26500225c-8.02399921-14.32799956 14.72600007-23.45299911 19.9920001-13.89899957 6.89699984 12.5140003-14.97800016 22.85299909-19.9920001 13.89899957z"/>
        <path fill="none" stroke="#FF9F00" stroke-miterlimit="10" stroke-width="2.5" d="M300.39801502 356.26500225c-8.02399921-14.32799956 14.72600007-23.45299911 19.9920001-13.89899957 6.89699984 12.5140003-14.97800016 22.85299909-19.9920001 13.89899957z"/>
        <path fill="#FFC23B" d="M305.10599518 343.74700391c.36299991-.42600001 13.61299968 5.50499976 13.79299974 6.21299994.14499998.57000017-12.28500032 7.95400048-12.81899976 7.48700047-.5340004-.467.47900009-6.09800053 1.04399967-6.21600056 1.46400022-.30499983 6.58399999-1.1409998 6.58399999-1.1409998s-5.85599983-1.12599992-6.92299974-1.51600026c-.61800003-.22599984-2.11800003-4.3119998-1.6789999-4.82699979z"/>
        <path fill="#FFDE39" d="M248.02900505 350.6860032c1.9460001-.62499975-5.0989995-1.28899979-10.78999972-.65299987-10.33500028 1.15500021-14.52100015 8.21900034-12.86300016 8.62799978 6.43600035 1.5890007 19.56099987-6.66099977 23.65299988-7.9749999z"/>
        <path fill="#FFCC39" d="M256.73200035 372.11698627c7.52599907-12.27600044-10.27200043-25.24800014-20.92100048-12.13300043-8.86299992 10.91399962 13.8460002 23.67200095 20.92100048 12.13300043z"/>
        <path fill="none" stroke="#FF9F00" stroke-miterlimit="10" stroke-width="2.5" d="M256.73200035 372.11698627c7.52599907-12.27600044-10.27200043-25.24800014-20.92100048-12.13300043-8.86299992 10.91399962 13.8460002 23.67200095 20.92100048 12.13300043z"/>
        <path fill="#FFF36C" d="M253.71399498 373.9820118c6.45899963-12.46300006-13.95300007-23.88199997-20.08300018-9.87000013-3.43799973 7.85699964 17.54199981 14.77200055 20.08300018 9.87000013z"/>
        <path fill="none" stroke="#FF9F00" stroke-miterlimit="10" stroke-width="2.5" d="M253.71399498 373.9820118c6.45899963-12.46300006-13.95300007-23.88199997-20.08300018-9.87000013-3.43799973 7.85699964 17.54199981 14.77200055 20.08300018 9.87000013z"/>
        <path fill="#FF9F00" d="M323.0679884 354.44098902c.0039997-1.56899977-10.37200037-3.89599991-15.22200013-3.29900003-8.43599987 1.03799987-12.55000019 6.31599975-11.8380003 7.43000007 1.86100007 2.90999985 27.03999997 3.77499962 27.06000043-4.13100004z"/>
        <path fill="#FFCC39" d="M293.70699658 375.13999939c-8.02500023 7.63100052-26.32999959-5.42199993-17.81999936-16.08400011 8.18299961-10.25200033 26.95799923 7.39400005 17.81999936 16.08400011z"/>
        <path fill="none" stroke="#FF9F00" stroke-miterlimit="10" stroke-width="2.5" d="M293.70699658 375.13999939c-8.02500023 7.63100052-26.32999959-5.42199993-17.81999936-16.08400011 8.18299961-10.25200033 26.95799923 7.39400005 17.81999936 16.08400011z"/>
        <path fill="#FFF04E" d="M296.81800044 371.69500256c-7.90999997 8.56599903-27.43499911-9.1360004-17.9990002-16.39800024 9.43600035-7.26200057 25.9090004 7.83199977 17.9990002 16.39800024z"/>
        <path fill="none" stroke="#FF9F00" stroke-miterlimit="10" stroke-width="2.5" d="M296.81800044 371.69500256c-7.90999997 8.56599903-27.43499911-9.1360004-17.9990002-16.39800024 9.43600035-7.26200057 25.9090004 7.83199977 17.9990002 16.39800024z"/>
        <path fill="#FF9F00" d="M257.77999687 377.06400204c-3.98600006-7.5149994-23.46899986-13.71899963-29.18599987-5.5-2.11400127 3.03999996 30.60999966 8.18500042 29.18599987 5.5z"/>
      </g>
      <g style="display:block">
        <path fill="url(#y)" d="M0-22.70800018c-19.25799942 0-143.33399963-54.80400086-143.33399963-54.80400086s-.03900147 109.64599991 5.73599243 122.65299988C-132.01600647 57.7140007-10.93200016 105.1780014-.27900001 104.98200226c42.20999977-.77500153 129.53000709-44.16400147 137.87700721-59.84100342 4.5499878-8.54499817 5.73599243-122.65299988 5.73599243-122.65299988S19.25799942-22.70800018 0-22.70800018z" transform="translate(258.44500732 391.66900635)"/>
        <path fill="#9CDE1D" d="M258.4449997 367.88400269c-19.25799943 0-143.33399964-54.80500031-143.33399964-54.80500031s-.78900146 110.00699997 5.73600006 122.65399933c14.38100052 27.87400055 117.42900086 59.60099792 137.31900025 59.84000397"/>
        <path fill="#E5FFBF" d="M257.42100537 374.5189972c-1.09499991 36.9110012.16999996 89.20300101.01900005 119.7350006-.02400005 4.81500244 3.16399992 4.68500138 3.27399993.20700074.43200004-17.56700135 1.16699994-99.82899857.32300007-119.51800156-.39200007-9.15600205-3.39900004-7.73799515-3.61600005-.42399979z"/>
        <path fill="none" stroke="#1A8B00" stroke-linecap="round" stroke-linejoin="round" stroke-width="5" d="M258.4449851 368.96199417c-19.25800008 0-143.33399267-54.80399704-143.33399267-54.80399704s-1.14201355 103.90299797 5.73599243 122.65299606c6.87800598 18.75 114.81400109 58.98800278 137.31900025 59.84000016 22.50499916.852005 131.58000183-40.80599976 137.8769989-59.84000016 6.29699707-19.03399848 5.73600769-122.65299606 5.73600769-122.65299606s-124.07600594 54.80399704-143.3340066 54.80399704z"/>
      </g>
      <g style="display:block">
        <path fill="#98D425" d="M298.26799202 442.97499657c-1.2119999 3.94099998-1.49300003 4.31599998-6.32300043 6.7880001-4.6579999 2.38400078-6.40899992 4.85000039-2.97299981 6.92200089 3.4360001 2.07199955 3.66499972 1.02699947 8.6570003-1.9810009 7.90799904-4.7649994 7.37999916-2.98399925 2.04899979 1.84499931-7.01399994 6.35300064-6.62200022 7.79300118-7.5340004 12.03700066-1.05699968 4.9190002.35300016 5.40000021 5.24300003.14600038 4.89000034-5.25400018 4.57400036-4.86000013 8.63500023-3.592 3.92099953 1.2249999 6.74099922 1.24399995 5.15500069-6.30100012-1.32600022-6.3069992.0019989-6.52099991 2.90799904-11.04500008 3.31999969-5.16900062 4.97800064-8.085001-2.31299973-5.8939991-5.33099937 1.60199928-4.86899948 1.16799927-6.36700058-2.67499924-2.36999893-6.08000183-3.9649992-6.56500244-7.13699913 3.7499981zM280.62999249 394.86599183c-1.2119999 3.9410001-1.49300004 4.3160001-6.32299996 6.7880001-4.658 2.38400007-6.40899944 4.8509996-2.97299957 6.9230001 3.43599987 2.07199955 3.66599941 1.02699948 8.65799951-1.98099994 7.90800023-4.76399994 7.3790002-2.98500014 2.0480001 1.84399986-7.01400018 6.35299969-6.62199998 7.79300022-7.53399968 12.0369997-1.05700016 4.91900063.35299969 5.39999962 5.24299955.14599991 4.89000023-5.2539997 4.57400024-4.8599987 8.63500023-3.59199905 3.921 1.22500038 6.7409997 1.24499893 5.15500021-6.3000002-1.32600021-6.30700015.00199986-6.52100038 2.908-11.0450003 3.31999969-5.17000008 4.97900009-8.08600021-2.31299973-5.89499999-5.33100057 1.602-4.8680005 1.16799998-6.36600042-2.67499995-2.37000006-6.0800004-3.96600008-6.56500006-7.13800024 3.74999976zM377.5960102 355.3150096c-1.21199989 3.94099992-1.49300002 4.31599992-6.32300018 6.78799986-4.658 2.38400007-6.40899992 4.85000015-2.973 6.9219997 3.43600005 2.0720005 3.66500015 1.02700042 8.65700025-1.98099947 7.90799904-4.7650001 7.37999916-2.98400021 2.04899979 1.84499979-7.01399994 6.35299968-6.62200022 7.79299926-7.53399992 12.03700065-1.05700016 4.91899872.35299968 5.39999962 5.24299955.14599991 4.89000034-5.25400066 4.57400036-4.86000061 8.63500023-3.59200096 3.92099953 1.22500038 6.74099922 1.24400139 5.15500068-6.30099964-1.3260002-6.30699969.00099946-6.52099991 2.9069996-11.04499992 3.31999969-5.16899983 4.97999954-8.0850002-2.31200028-5.89400021-5.33099938 1.60200023-4.86899948 1.16800022-6.36700058-2.6750002-2.36999893-6.07999992-3.9649992-6.56499957-7.13699913 3.75000048zM366.5880144 421.00700474c-1.21200005 3.94099998-1.49299995 4.31599998-6.32300023 6.7880001-4.65799951 2.38399983-6.40999937 4.85000015-2.97300005 6.92200006 3.43700028 2.07200002 3.66500044 1.028 8.6570003-1.9799999 7.90799976-4.76400018 7.37999988-2.9849999 2.04900003 1.84399986-7.01399994 6.35299992-6.62200022 7.79299998-7.53399992 12.03699994-1.05700016 4.91899967.35299969 5.40000057 5.24299991.1459999 4.88999999-5.2539997 4.574-4.85999965 8.63499987-3.592 3.92100048 1.22500038 6.74100018 1.24400043 5.15499974-6.30099976-1.32599926-6.30700004.0020008-6.52100027 2.90799999-11.04499996 3.3199997-5.16899967 4.97900009-8.08500004-2.31299973-5.89400005-5.33099985 1.60200024-4.86800003 1.16800022-6.3659997-2.67499924-2.37000036-6.07999992-3.96600031-6.56500053-7.13800022 3.74999905z"/>
      </g>
      <g style="display:block">
        <path fill="#C5FF39" d="M235.77899551 457.35700035c-1.22699928 2.97100067-1.51199913 3.11600018-6.40299987 1.55700016-4.71699906-1.5029993-6.48999978-.47900009-3.01000023 4.50899983 3.4800005 4.98800039 3.71100044 4.12100029 8.76600074 5.27400016 8.0079999 1.82600022 7.47199989 3.18400026 2.07399989 3.5910002-7.10199976.53500003-6.704 2.32300008-7.62799979 5.85300005-1.0710001 4.092.3569994 5.76399994 5.30900002 4.55700016 4.95199966-1.20699978 4.63099956-1.07499981 8.74299967 3.6239996 3.97000015 4.53700065 6.8260001 6.92799949 5.22000015-2.04500008-1.34300017-7.5009997.00199985-6.60099983 2.94399977-8.7389996 3.36200046-2.4430001 5.04100036-4.00000013-2.34200001-7.91299988-5.39799988-2.86100006-4.9289999-2.91200065-6.44599986-8.06300068-2.39999986-8.14900016-4.0150001-9.98200035-7.22700048-2.20499992zM205.57700253 410.8529892c-1.22700024 2.97100067-1.51200009 3.11500168-6.40299988 1.55599975-4.71700001-1.50299835-6.49000073-.47800064-3.00999928 4.51000214 3.47999954 4.98799896 3.7109995 4.12099838 8.76599884 5.27399826 8.00800023 1.82600021 7.47300023 3.1839981 2.07500029 3.5909996-7.10199976.53499985-6.7050004 2.32300186-7.62900019 5.85300064-1.0710001 4.09199906.35700035 5.7630005 5.30900002 4.55599976 4.95200014-1.20700073 4.6320002-1.0739994 8.7440001 3.625 3.97000012 4.53700066 6.82500014 6.9279995 5.2190002-2.04500008-1.34300042-7.50099945.00299978-6.60099983 2.94499969-8.73900032 3.36200046-2.4430008 5.03999996-4.00099945-2.34299994-7.91400146-5.39799994-2.86100006-4.9289999-2.9109993-6.44599995-8.06199646-2.4-8.14900208-4.01500001-9.98200226-7.2269999-2.20500183zM145.81200457 412.00299263c-1.227 2.97100067-1.51200009 3.11500072-6.40300012 1.55600071-4.71699977-1.5029993-6.49000001-.4790001-3.01 4.50899982 3.48000003 4.9880004 3.71099998 4.12200022 8.76600004 5.2750001 8.00799966 1.82600021 7.47200036 3.1830002 2.07400012 3.59000015-7.102.53499997-6.70400011 2.32300002-7.62800002 5.85300017-1.0710001 4.092.35699988 5.76399994 5.30900002 4.55700016 4.9519999-1.20700026 4.6309998-1.07500029 8.74300027 3.6239996 3.9699993 4.53700065 6.82599926 6.92799949 5.22000026-2.04500008-1.34300041-7.50099993.0019989-6.60099984 2.94400025-8.73899985 3.3619995-2.44300002 5.04099846-4-2.34200096-7.9130001-5.39799977-2.86099959-4.9289999-2.91099978-6.4460001-8.0619998-2.39999962-8.14899922-4.01499987-9.9819994-7.22699976-2.20500088zM130.9509976 351.70100784c-1.22700007 2.97099686-1.51100005 3.11499787-6.4020002 1.55599976-4.71699953-1.50300217-6.4909997-.47800064-3.01099968 4.50999832 3.47999978 4.98800087 3.71099973 4.12100029 8.7659998 5.27400017 8.0079999 1.82600021 7.47300005 3.18400001 2.07500004 3.5909996-7.102.53499985-6.70499992 2.32299996-7.62899994 5.85300064-1.0710001 4.09200001.35699987 5.76299954 5.3089999 4.55599976 4.95200025-1.20699978 4.63200008-1.07499981 8.74400007 3.62400007 3.97000027 4.53699994 6.82500076 6.92799994 5.21899986-2.0449996-1.34299946-7.50100136.00300026-6.60000038 2.9449997-8.73800087 3.3619995-2.44299888 5.04100036-4.00099945-2.34200001-7.91399956-5.39799976-2.86100006-4.92999935-2.9109993-6.44699955-8.06200027-2.4000001-8.14899826-4.01499987-9.98199844-7.227-2.20499802zM234.3889966 377.1760025c-1.22700024 2.97100067-1.51100016 3.11500168-6.40200013 1.55599976-4.71699983-1.50299835-6.491-.4790001-3.01099998 4.50899887 3.47999996 4.98800278 3.71099997 4.12200165 8.7659998 5.27500153 8.0079999 1.8260002 7.47300005 3.18400192 2.07500028 3.5909996-7.10200011.53499985-6.70500011 2.32300186-7.62900012 5.85300064-1.07100004 4.09199905.35700002 5.76300049 5.30899995 4.55599976 4.95200014-1.20700074 4.63200045-1.07500077 8.74399996 3.62400054 3.97000027 4.53699875 6.82599926 6.9279995 5.22000027-2.04500007-1.34300041-7.50100136.0019989-6.60000038 2.94400024-8.73800087 3.36199951-2.4430008 5.04100037-4.00099945-2.34200096-7.91400147-5.39799976-2.86099624-4.92999935-2.9109993-6.44699955-8.06199646-2.39999962-8.14900207-4.01500034-9.98200225-7.22699976-2.20500183z"/>
      </g>
      <g style="display:block">
        <path fill="url(#z)" d="M6.58199978 37.8959999C5.263-12.81700038 9.82299995-36.36600112 32.62099838-49.38899993 22.34700012-46.23199844-4.4039998-34.84400177-16.80599976-26.04899979c-21.85699844 15.5-24.83100128 50.22999955-21.53100204 81.04399872.6910019 6.45500183 45.08600187-10.6930008 44.91900158-17.09899902z" transform="matrix(1.00784 0 0 .99228 355.50638932 425.23114162)"/>
        <path fill="none" stroke="url(#A)" stroke-linecap="round" stroke-linejoin="round" stroke-width="5.001" d="M6.58199978 37.8959999C5.263-12.81700038 9.82299995-36.36600112 32.62099838-49.38899993 22.34700012-46.23199844-4.4039998-34.84400177-16.80599976-26.04899979c-21.85699844 15.5-24.83100128 50.22999955-21.53100204 81.04399872.6910019 6.45500183 45.08600187-10.6930008 44.91900158-17.09899902z" transform="matrix(1.00784 0 0 .99228 355.50638932 425.23114162)"/>
        <path fill="#F7BD00" d="M359.24950792 448.57355464s-.8445712 6.94695178-7.22722139 11.08773635c-4.70560528 3.05225327-15.5227522 7.45599214-22.19465362 8.3629361-5.18735202.70451837-9.03427688.34035198-11.02980161-.30959164-1.11567928-.36317465.30235316 10.69082543.30235316 10.69082543s7.87123016 1.42491302 24.10350174-6.30296283c6.9923939-3.32909992 15.92891114-6.82291773 16.35119675-9.75808193.4222856-2.93516432-.30537503-13.77086148-.30537503-13.77086148z"/>
        <path fill="url(#B)" d="M-7.99599981 20.33600044c-15.21100092-22.88100052-30.841002-13.85600042-31.69800043-14.6890006C-40.7480011 4.62200022-13.48400021-7.25600004-4.53900004-9.89999962c19.10899973-5.64900017 32.5800004 11.89899957 31.3319993 13.70899964C25.39100076 5.84299994-7.30600023 21.375-7.9959998 20.33600044z" transform="matrix(1.00784 0 0 .99228 392.173614 386.17898205)"/>
        <path fill="none" stroke="url(#C)" stroke-miterlimit="10" stroke-width="5.001" d="M-7.99599981 20.33600044c-15.21100092-22.88100052-30.841002-13.85600042-31.69800043-14.6890006C-40.7480011 4.62200022-13.48400021-7.25600004-4.53900004-9.89999962c19.10899973-5.64900017 32.5800004 11.89899957 31.3319993 13.70899964C25.39100076 5.84299994-7.30600023 21.375-7.9959998 20.33600044z" transform="matrix(1.00784 0 0 .99228 392.173614 386.17898205)"/>
      </g>
      <g style="display:block">
        <path fill="#16A411" d="M158.4750061 364.11300278c7.81599808-4.64400101 33.3059988 4.25099945 44.50299907 14.22599792 3.33599997 2.97200012 52.96399999-9.95399856 55.70000005-7.49200058 4.9109993 4.42000199-43.27099991 51.12900162-43.1590004 58.31700134.10599995 6.83600045-1.79399967 36.08599854-3.56699991 51.84799958-8.68199968-1.78699875-28.50200033-6.3199997-43.00200033-17.04999924-1.36000061-1.00600052-14.66999817-97.355999-10.47499848-99.84899902z" opacity=".5"/>
        <path fill="url(#D)" d="M-8.02299976 39.77500153C-7.70100021-55.60499954-30.4659996-48.3160019-30.7630005-52.32099915c-.36499977-4.9260025 35.58100033 7.18299866 46.50900078 14.91799927 23.34599876 16.52300072 22.60000038 89.94400025 19.95400047 93.35699845C32.72800064 59.7879982-8.0380001 44.10499954-8.02299976 39.77500153z" transform="translate(169.3580017 427.3500061)"/>
        <path fill="none" stroke="url(#E)" stroke-miterlimit="10" stroke-width="5.001" d="M-8.02299976 39.77500153C-7.70100021-55.60499954-30.4659996-48.3160019-30.7630005-52.32099915c-.36499977-4.9260025 35.58100033 7.18299866 46.50900078 14.91799927 23.34599876 16.52300072 22.60000038 89.94400025 19.95400047 93.35699845C32.72800064 59.7879982-8.0380001 44.10499954-8.02299976 39.77500153z" transform="translate(169.3580017 427.3500061)"/>
        <path fill="#F7CC10" d="M163.77700615 453.5629921s1.38499927 5.74999904 5.49499893 9.49299907c4.11000013 3.74300003 16.7130003 8.51999998 23.99000073 9.13199997 7.0559988.59300018 9.52499866-.93799996 10.18599987.0480001 1.125 1.6789999-.51600075 8.83700013-.51600075 8.83700013s-8.58199978-.13600063-21.81599957-6.12200022c-6.7899999-3.0719999-16.28899997-6.65199995-16.79200023-8.07099986-.60000038-1.69300008-.54699898-13.3169992-.54699898-13.3169992z"/>
        <path fill="url(#F)" d="M6.98000002 18.45499992C22.19099998-1.125 37.81999969 6.59899998 38.67699814 5.88600016 39.73099899 5.00899982 12.467-5.15500021 3.52200007-7.41800022-15.58699989-12.25199986-29.05800056 2.76399994-27.80999947 4.3130002c1.40199852 1.73999977 34.09999943 15.03099966 34.78999949 14.14199972z" transform="translate(142.67900085 381.875)"/>
        <path fill="none" stroke="url(#G)" stroke-miterlimit="10" stroke-width="5.001" d="M6.98000002 18.45499992C22.19099998-1.125 37.81999969 6.59899998 38.67699814 5.88600016 39.73099899 5.00899982 12.467-5.15500021 3.52200007-7.41800022-15.58699989-12.25199986-29.05800056 2.76399994-27.80999947 4.3130002c1.40199852 1.73999977 34.09999943 15.03099966 34.78999949 14.14199972z" transform="translate(142.67900085 381.875)"/>
      </g>
      <g style="display:block">
        <path fill="url(#H)" d="M-49.16500092-42.61999893s-26.54999542 22.80399895-29.3639984 26.50699806c-3.46500398 4.56000042-8.02500153 10.45800066-6.0189972 14.53100085 2.0059967 4.07299996 33.88799667 19.65899968 51.37199783 27.41899991 22.73799896 10.09200096 78.5340004 30.2329998 85.60099793 29.42500115 4.25600052-.48600006 14.81200027-11.98600006 21.7650032-19.09000015 6.9529953-7.1040001 19.54100037-17.93500138 19.54100037-17.93500138S48.47900009 3.23200011 17.31200027-8.52400017C-15.48700047-20.8959999-43.69300079-39.519001-49.16500092-42.61999893z" transform="translate(164.98899841 350.70401001)"/>
        <path fill="none" stroke="#019F09" stroke-linecap="round" stroke-linejoin="round" stroke-width="5" d="M115.8239975 308.08401108s-26.54999542 22.80399895-29.36399842 26.50699806c-3.46500396 4.56000042-8.02500152 10.45800066-6.01899719 14.53100085 2.0059967 4.07299996 33.88799668 19.65899968 51.37199784 27.41899991 22.73799896 10.09200096 78.5340004 30.2329998 85.60099792 29.42500115 4.25600052-.48600006 14.81200027-11.98600006 21.7650032-19.09000016 6.9529953-7.10400009 19.54100037-17.93500137 19.54100037-17.93500137s-45.25200272-15.0049994-76.41900253-26.76099968c-32.79900074-12.37199974-61.00500107-30.99500084-66.4770012-34.09599876z"/>
        <path fill="url(#I)" d="M50.11500168-45.42399979S74.9280014-23.32299995 77.74199677-19.62000084c3.46500396 4.56000042 7.92100524 9.39600086 5.01600646 14.9560008C79.85299683.89600004 52.20000076 13.72099973 34.7159996 21.4810009 11.9779997 31.57299995-41.72200012 58.62400055-50.8409996 56.07099915c-9.45800019-2.64799881-14.85499955-17.14999772-21.80800248-24.25399971-6.9529953-7.1040001-20.20199584-18.7279997-20.20199584-18.7279997s45.88999938-15.16299962 77.33199787-27.95300006c33.42800045-13.59799957 60.1620016-27.45900154 65.63400173-30.55999947z" transform="translate(352.33599854 355.79199219)"/>
        <path fill="none" stroke="#019F09" stroke-linecap="round" stroke-linejoin="round" stroke-width="5" d="M402.45100021 310.3679924s24.81299973 22.10099983 27.62699509 25.80399895c3.46500397 4.56000042 7.92100525 9.39600086 5.01600647 14.9560008-2.9050064 5.56000007-30.55800247 18.38499976-48.04200363 26.14500094-22.73799992 10.09199905-76.43799973 37.14299965-85.5569992 34.58999824-9.4580002-2.6479988-14.85499955-17.1499977-21.80800248-24.2539997-6.9529953-7.1040001-20.20199585-18.7279997-20.20199585-18.7279997S305.375 353.71799232 336.81699848 340.92799188c33.42800045-13.59799958 60.16200161-27.45900154 65.63400173-30.55999947z"/>
      </g>
      <g style="display:block">
        <path fill="url(#Q)" d="m10.79800034-86.11100006 20.57799911 41.69599914c1.75400162 3.55400086 5.14500046 6.01700211 9.06700134 6.5870018l46.01399994 6.68599892c9.8769989 1.43499947 13.82099915 13.57299996 6.67399597 20.53999996L59.83499908 21.8540001c-2.83799743 2.76600075-4.13299942 6.75200081-3.46299743 10.65800095l7.8600006 45.8279953c1.68699647 9.83700561-8.63800048 17.33900451-17.47200393 12.69500732L5.6040001 69.39800262c-3.50800013-1.84400177-7.70000005-1.84400177-11.20800018 0l-41.9790001 22.06900025c-8.4980011 4.46699524-18.42900085-2.7480011-16.80599975-12.20999909l3.37900162-20.37400436c1.79599762-10.82600021 8.62399673-20.15800095 18.39999771-25.14500046L7.26900005 8.29199982C8.52099991 7.546 9.35599995 6.21799994 9.36600018 4.76100016c.00500011-.6830001-.15299988-1.12600017-.5510006-1.63100005-1.02099943-1.29700017-2.68799972-1.90700006-4.32199955-1.67900013L-54.9319992 9.74699974C-64.4909973 11.08100033-74.1289978 7.921-81.0400009 1.18400002l-12.0909958-11.78600026c-7.14700317-6.967-3.20300292-19.1050005 6.67399598-20.53999996l46.01399994-6.68599891c3.92200088-.5699997 7.31299972-3.03300095 9.06700134-6.5870018l20.57799911-41.69599915c4.4170003-8.94999695 17.17900038-8.94999695 21.59600068 0z" transform="translate(256.51502253 212.31199408)"/>
        <path fill="none" stroke="#DB9500" stroke-width="5" d="m267.30235771 126.19965664 20.58316331 41.6934505c1.7544418 3.5537836 5.14574569 6.01636487 9.06781717 6.58587881l46.01482802 6.68029992c9.87717663 1.43377617 13.82268021 13.57128818 6.67653993 20.53917337l-33.29197783 32.46012415c-2.83765486 2.76635225-4.13216316 6.7525127-3.4616774 10.65842985l7.86567656 45.82702181c1.6882148 9.83679668-8.63585299 17.34007437-17.47043161 12.6971713l-41.15867805-21.63190372c-3.50822852-1.8435673-7.70022844-1.8430481-11.20800019.00138815l-41.97626676 22.07419949c-8.49744785 4.46804774-18.4293412-2.7457186-16.80751201-12.2079176l3.37647822-20.37442287c1.79465678-10.82622265 8.6215001-20.15906906 18.39688342-25.14727936l49.87584908-25.45217684c1.25190746-.74615488 2.08674303-2.07425836 2.0965628-3.53125938.00491552-.6830007-.15313934-1.12598122-.5512026-1.6309318-1.02116007-1.29687371-2.68823591-1.90666714-4.3222075-1.67846484l-59.42397175 8.30335976c-9.55883289 1.3351845-19.19722475-1.82362212-26.10906227-8.55976616l-12.09245552-11.78450274c-7.14786606-6.96611482-3.20536915-19.10460379 6.67145202-20.54082656l46.01317185-6.69169791c3.9219303-.57048545 7.31262408-3.03390669 9.06618552-6.58812478l20.57283492-41.6985478c4.4158918-8.95054401 17.17789189-8.95212463 21.59600067-.00267475z"/>
        <path fill="#FFF" d="M170.55914604 205.4146466c-8.05601986-8.23100463-4.63832498-18.78942674 4.99749556-20.22161995l46.40114283-6.9377472c3.82592986-.56847371 7.13362517-3.0258832 8.84418655-6.57109566l20.07084964-41.5884874c2.38838699-4.9492934 6.90212064-7.099854 11.52218633-6.56142473-4.23136065-2.91947796-11.50830868-2.49557634-15.24734383 5.27788568l-19.75993132 40.94544924c-1.68456722 3.49020894-4.9412677 5.90861255-8.70819855 6.46907857l-45.70715521 6.83566102c-9.486825 1.4101754-13.64057225 11.51568955-4.89553363 19.90460597l2.48230163 2.44769445zM198.82323382 294.88614202l3.3215388-19.86741227c1.76569268-10.55721853 8.48256437-19.65605063 18.09896265-24.52024165l49.06592731-24.81707628c3.09774084-2.0893844-.96477045-6.21488076-1.46865728-5.31881843-.56687662 1.0070702-1.34876454 1.92416687-2.5616733 2.6403167l-48.30797628 24.43398299c-9.46740645 4.78917275-16.0802973 13.74799198-17.8180085 24.14120713l-3.27157962 19.55940551c-.72847817 4.214091.95398524 7.96188377 3.78628086 10.34252972-.90023835-1.94288551-1.26051751-4.19184147-.84481464-6.59389342z"/>
      </g>
    </g>
  </g>
</svg>