<svg xmlns="http://www.w3.org/2000/svg" xmlns:xlink="http://www.w3.org/1999/xlink" fill="none" viewBox="0 0 512 512">
  <defs>
    <path id="reuse-0" fill="#fff" d="M1 0h512v512H1V0Z"/>
  </defs>
  <g clip-path="url(#a)">
    <mask id="b" width="512" height="512" x="1" y="0" maskUnits="userSpaceOnUse" style="mask-type:luminance">
      <use xlink:href="#reuse-0"/>
    </mask>
    <g mask="url(#b)">
      <mask id="c" width="512" height="512" x="1" y="0" maskUnits="userSpaceOnUse" style="mask-type:luminance">
        <use xlink:href="#reuse-0"/>
      </mask>
      <g fill="#DDD" mask="url(#c)">
        <path d="M116.707 308.721s-10.549-5.381-19.945-4.285c-10.943 1.277-18.239 4.56-20.792 1.642-2.969-3.394 54.27-31.453 71.131-39.213 21.927-10.092 46.104-18.364 52.467-20.428 4.499-1.459 17.965-3.465 30.276-2.188 9.316.966 26.333 6.661 26.333 6.661s-46.372 12.953-76.429 24.709c-31.631 12.372-57.764 30.001-63.041 33.102ZM402.545 308.722s11.01-2.694 20.691-2.279c12.767.547 20.179 3.324 22.434 1.763 1.581-1.094-54.619-30.276-72.955-39.274-22.112-10.851-48.586-20.336-55.075-22.495-3.655-1.216-17.303-2.371-29.918-1.094-9.546.966-29.364 5.472-29.364 5.472s46.341 10.517 76.785 23.163c35.566 14.773 61.995 31.643 67.402 34.744Z"/>
        <path d="M258.428 387.096c-17.688-.756-102.911-38.146-130.002-52.619 0 0-14.828-10.365-12.564-23.856 2.578-15.362 129.622-59.899 140.315-59.711 42.366.744 145.69 46.519 147.408 59.711 1.849 14.201-4.62 16.805-4.62 16.805-30.205 26.078-102.593 61.292-140.537 59.67Z"/>
        <path d="M259.445 368.961c-19.258 0-143.334-54.804-143.334-54.804s-.039 109.646 5.736 122.653c5.582 12.573 126.666 60.037 137.319 59.841 42.21-.775 129.53-44.164 137.877-59.841 4.55-8.545 5.736-122.653 5.736-122.653s-124.076 54.804-143.334 54.804Z"/>
        <path d="M259.445 367.884c-19.258 0-143.334-54.805-143.334-54.805s-.789 110.007 5.736 122.654c14.381 27.874 117.429 59.601 137.319 59.84"/>
        <path d="M258.421 374.519c-1.095 36.911.17 89.203.019 119.735-.024 4.815 3.164 4.685 3.274.207.432-17.567 1.167-99.829.323-119.518-.392-9.156-3.399-7.738-3.616-.424ZM363.14 462.835c-1.329-50.322 3.266-73.689 26.243-86.612-10.354 3.133-37.315 14.433-49.814 23.16-22.029 15.381-25.026 49.842-21.7 80.419.696 6.405 45.439-10.611 45.271-16.967Z"/>
        <path d="M385.115 406.358c-15.33-22.704-31.083-13.749-31.947-14.576-1.062-1.017 26.416-12.803 35.431-15.427 19.259-5.605 32.835 11.808 31.578 13.604-1.413 2.018-34.367 17.43-35.062 16.399ZM162.335 467.125c.322-95.38-22.443-88.091-22.74-92.096-.365-4.926 35.581 7.183 46.509 14.918 23.346 16.523 22.6 89.944 19.954 93.357-2.972 3.834-43.738-11.849-43.723-16.179Z"/>
        <path d="M116.824 308.084s-26.55 22.804-29.364 26.507c-3.465 4.56-8.025 10.458-6.019 14.531 2.006 4.073 33.888 19.659 51.372 27.419 22.738 10.092 78.534 30.233 85.601 29.425 4.256-.486 14.812-11.986 21.765-19.09 6.953-7.104 19.541-17.935 19.541-17.935s-45.252-15.005-76.419-26.761c-32.799-12.372-61.005-30.995-66.477-34.096ZM403.451 310.368s24.813 22.101 27.627 25.804c3.465 4.56 7.921 9.396 5.016 14.956-2.905 5.56-30.558 18.385-48.042 26.145-22.738 10.092-76.438 37.143-85.557 34.59-9.458-2.648-14.855-17.15-21.808-24.254-6.953-7.104-20.202-18.728-20.202-18.728s45.89-15.163 77.332-27.953c33.428-13.598 60.162-27.459 65.634-30.56ZM268.313 126.201l20.578 41.696c1.754 3.554 5.145 6.017 9.067 6.587l46.014 6.686c9.877 1.435 13.821 13.573 6.674 20.54l-33.296 32.456c-2.838 2.766-4.133 6.752-3.463 10.658l7.86 45.828c1.687 9.837-8.638 17.339-17.472 12.695l-41.156-21.637c-3.508-1.844-7.7-1.844-11.208 0l-41.979 22.069c-8.498 4.467-18.429-2.748-16.806-12.21l3.379-20.374c1.796-10.826 8.624-20.158 18.4-25.145l49.879-25.446c1.252-.746 2.087-2.074 2.097-3.531.005-.683-.153-1.126-.551-1.631-1.021-1.297-2.688-1.907-4.322-1.679l-59.425 8.296c-9.559 1.334-19.197-1.826-26.108-8.563l-12.091-11.786c-7.147-6.967-3.203-19.105 6.674-20.54l46.014-6.686c3.922-.57 7.313-3.033 9.067-6.587l20.578-41.696c4.417-8.95 17.179-8.95 21.596 0Z"/>
      </g>
    </g>
  </g>
  <defs>
    <clipPath id="a">
      <path fill="#fff" d="M0 0h512v512H0z"/>
    </clipPath>
  </defs>
</svg>